<?xml version="1.0" encoding="UTF-8"?>
<svg id="Layer_1" data-name="Layer 1" xmlns="http://www.w3.org/2000/svg" viewBox="0 0 61 61">
  <defs>
    <style>
      .cls-1 {
        fill: #bd8928;
      }

      .cls-1, .cls-2 {
        stroke-width: 0px;
      }

      .cls-2 {
        fill: #f3ca7c;
      }
    </style>
  </defs>
  <path class="cls-1" d="M31.19,11.03v3.65h22.12v29.2H7.69V14.68h22.2v-3.65H4.04v36.5h52.92V11.03h-25.77Z"/>
  <path class="cls-1" d="M20.46,47.53h20.07v3.65h-20.07v-3.65Z"/>
  <path class="cls-1" d="M54.22,53.93l-13.69-2.74h-20.07l-13.69,2.74c-1.76.29-2.74.95-2.74,2.74v.91l16.43-2.74h20.07l16.43,2.74v-.91c0-1.78-.98-2.44-2.74-2.74Z"/>
  <g>
    <path class="cls-1" d="M41.45,36.58l-3.65-1.83v-3.65l3.65,1.83v3.65Z"/>
    <path class="cls-1" d="M42.06,36.58l3.65-1.83v-3.65l-3.65,1.83v3.65Z"/>
  </g>
  <path class="cls-1" d="M38.1,30.5l3.65-1.83,3.65,1.83-3.65,1.83-3.65-1.83Z"/>
  <path class="cls-1" d="M47.84,45.65h-5.48v-1.83h3.65v-5.48h1.83v7.3Z"/>
  <g>
    <path class="cls-1" d="M44.53,28.31l-.68-1.69,3.99-1.59v-3.95h1.83v5.18l-5.13,2.05h0Z"/>
    <path class="cls-1" d="M18.28,29.21l-6.94-2.98v-8.81h1.83v7.61l5.84,2.5s-.72,1.67-.72,1.67Z"/>
  </g>
  <path class="cls-1" d="M29.59,32.94h1.83v1.83h-1.83v-1.83Z"/>
  <path class="cls-1" d="M12.25,38.41h1.83v1.83h-1.83s0-1.83,0-1.83Z"/>
  <path class="cls-1" d="M32.32,36.58h1.83v1.83h-1.83v-1.83Z"/>
  <g>
    <path class="cls-2" d="M15.9,6.16l14.6-2.74,14.6,2.74-14.6,3.65s-14.6-3.65-14.6-3.65Z"/>
    <g>
      <polygon class="cls-2" points="29.89 11.03 29.89 29.28 15.29 23.81 15.29 7.39 29.89 11.03"/>
      <polygon class="cls-2" points="45.71 7.39 45.71 23.81 31.11 29.28 31.11 11.03 45.71 7.39"/>
    </g>
  </g>
  <rect class="cls-1" x="17.59" y="31.84" width="7.95" height="7.95"/>
</svg>