<?xml version="1.0" encoding="UTF-8"?>
<svg id="Layer_1" data-name="Layer 1" xmlns="http://www.w3.org/2000/svg" viewBox="0 0 61 61">
  <defs>
    <style>
      .cls-1, .cls-2 {
        fill: #f3ca7c;
      }

      .cls-1, .cls-2, .cls-3 {
        stroke-width: 0px;
      }

      .cls-1, .cls-3 {
        fill-rule: evenodd;
      }

      .cls-3 {
        fill: #bd8928;
      }
    </style>
  </defs>
  <path class="cls-3" d="M22.59,35.12c-1.54,0-2.78,1.38-2.78,3.08v6.16c0,1.7,1.25,3.08,2.78,3.08h18.56c1.54,0,2.78-1.38,2.78-3.08v-6.16c0-1.7-1.25-3.08-2.78-3.08h-18.56ZM30.67,41.58l-3.71-4.11c-.36-.4-.95-.4-1.31,0l-3.71,4.11c-.36.4-.36,1.05,0,1.45s.95.4,1.31,0l3.06-3.38,3.06,3.38c.36.4.95.4,1.31,0s.36-1.05,0-1.45ZM36.78,37.47c.36-.4.95-.4,1.31,0l3.71,4.11c.36.4.36,1.05,0,1.45s-.95.4-1.31,0l-3.06-3.38-3.06,3.38c-.36.4-.95.4-1.31,0s-.36-1.05,0-1.45l3.71-4.11Z"/>
  <path class="cls-3" d="M24.44,27.93h-2.78c-4.3,0-7.84,3.59-8.3,8.21h-.98v-13.52c1.08-.42,1.86-1.56,1.86-2.9,0-1.7-1.25-3.08-2.78-3.08s-2.78,1.38-2.78,3.08c0,1.34.77,2.48,1.86,2.9v13.95c-1.64.79-2.78,2.6-2.78,4.71,0,2.83,2.08,5.13,4.64,5.13h.98c.46,4.62,4,8.21,8.3,8.21h20.41c4.3,0,7.84-3.59,8.3-8.21h.98c2.56,0,4.64-2.3,4.64-5.13s-2.08-5.13-4.64-5.13h-.98c-.46-4.62-4-8.21-8.3-8.21h-13.09l-2.9,3.75c-.25.33-.66.44-1.03.29-.36-.15-.61-.53-.61-.96v-3.08ZM17.95,38.2c0-2.83,2.08-5.13,4.64-5.13h18.56c2.56,0,4.64,2.3,4.64,5.13v6.16c0,2.83-2.08,5.13-4.64,5.13h-18.56c-2.56,0-4.64-2.3-4.64-5.13v-6.16Z"/>
  <path class="cls-2" d="M38.36,15.62c0-.57.42-1.03.93-1.03s.93.46.93,1.03-.42,1.03-.93,1.03-.93-.46-.93-1.03Z"/>
  <path class="cls-2" d="M31.87,14.59c-.51,0-.93.46-.93,1.03s.42,1.03.93,1.03.93-.46.93-1.03-.42-1.03-.93-1.03Z"/>
  <path class="cls-2" d="M45.78,15.62c0-.57.42-1.03.93-1.03s.93.46.93,1.03-.42,1.03-.93,1.03-.93-.46-.93-1.03Z"/>
  <path class="cls-1" d="M27.23,6.38c-1.02,0-1.86.92-1.86,2.05v22.58l5.57-7.19h20.41c1.02,0,1.86-.92,1.86-2.05v-13.34c0-1.13-.83-2.05-1.86-2.05h-24.12ZM39.29,12.54c-1.54,0-2.78,1.38-2.78,3.08s1.25,3.08,2.78,3.08,2.78-1.38,2.78-3.08-1.25-3.08-2.78-3.08ZM29.08,15.62c0-1.7,1.25-3.08,2.78-3.08s2.78,1.38,2.78,3.08-1.25,3.08-2.78,3.08-2.78-1.38-2.78-3.08ZM46.71,12.54c-1.54,0-2.78,1.38-2.78,3.08s1.25,3.08,2.78,3.08,2.78-1.38,2.78-3.08-1.25-3.08-2.78-3.08Z"/>
</svg>