<?xml version="1.0" encoding="UTF-8"?>
<svg id="Layer_1" data-name="Layer 1" xmlns="http://www.w3.org/2000/svg" viewBox="0 0 61 61">
  <defs>
    <style>
      .cls-1 {
        fill: #bd8928;
      }

      .cls-1, .cls-2 {
        stroke-width: 0px;
      }

      .cls-2 {
        fill: #f3ca7c;
      }
    </style>
  </defs>
  <g id="Page-1">
    <g id="_021---Drawing-on-Laptop" data-name="021---Drawing-on-Laptop">
      <path class="cls-1" d="M19.25,33.39v6.42s-.03.07-.07.07h-10.25c-2.58,0-4.68-2.1-4.68-4.69v-1.8s.03-.07.07-.07h14.87s.07.03.07.07Z"/>
      <circle id="Oval" class="cls-1" cx="15.49" cy="13.62" r="1.88"/>
      <path id="Shape" class="cls-2" d="M46.44,47.38c-.36,0-.68-.2-.84-.52l-1.88-3.75c-.06-.13-.1-.27-.09-.42v-8.37s-.03-.07-.07-.07h-12.99s-.07.03-.07.07v18.62s.03.07.07.07h22.37s.07-.03.07-.07v-18.62s-.03-.07-.07-.07h-3.61s-.07.03-.07.07v8.37c0,.15-.03.29-.09.42l-1.88,3.75c-.16.32-.49.52-.84.52Z"/>
      <path id="Shape-2" data-name="Shape" class="cls-2" d="M47.38,25.81c0-.52-.42-.94-.94-.94s-.94.42-.94.94v.94h1.88v-.94Z"/>
      <path id="Shape-3" data-name="Shape" class="cls-2" d="M45.51,42.49l.87,1.74c.03.05.1.05.13,0l.87-1.74s0-.02,0-.03v-13.83h-1.81s-.07.03-.07.07v13.76s0,.02,0,.03Z"/>
      <path class="cls-2" d="M56.76,31.51v24.24c0,.55-.45,1.01-1.01,1.01H22.12c-.55,0-1.01-.45-1.01-1.01v-24.24c0-.55.45-1.01,1.01-1.01h21.44s.07.03.07.07v1.74s-.03.07-.07.07h-12.99c-1.08,0-1.95.87-1.95,1.95v18.68c0,1.03.84,1.88,1.88,1.88h22.44c1.07,0,1.95-.88,1.95-1.95v-18.61c0-1.08-.87-1.95-1.95-1.95h-3.61s-.07-.03-.07-.07v-1.74s.03-.07.07-.07h6.43c.55,0,1.01.45,1.01,1.01Z"/>
      <path id="Shape-4" data-name="Shape" class="cls-1" d="M43.63,28.55v-2.6c0-1.02.47-2.03,1.35-2.56.73-.43,1.57-.51,2.32-.26.04.01.09-.02.09-.06V7.12c0-1.59-1.29-2.88-2.88-2.88H9c-1.59,0-2.88,1.29-2.88,2.88v24.24s.03.07.07.07h12.99s.07-.03.07-.07c.04-1.52,1.28-2.75,2.81-2.75h21.5s.07-.03.07-.07ZM17.37,29.56h-7.43c-1.07,0-1.95-.87-1.95-1.95V8.06c0-1.07.87-1.95,1.95-1.95h33.62c1.07,0,1.95.87,1.95,1.95v12.12c0,.52-.42.94-.94.94s-.94-.42-.94-.94v-12.12s-.03-.07-.07-.07H9.93s-.07.03-.07.07v19.56s.03.07.07.07h7.43c.52,0,.94.42.94.94s-.42.94-.94.94ZM19.24,13.62c0,2.07-1.68,3.75-3.75,3.75s-3.75-1.68-3.75-3.75,1.68-3.75,3.75-3.75,3.75,1.68,3.75,3.75ZM16.48,25.43c-.2.27-.53.41-.86.37-.33-.04-.62-.25-.75-.56s-.09-.66.11-.93l6.33-8.44c.18-.22.46-.35.75-.35s.57.13.75.35l4.12,5.49s.08.04.11,0l5.52-7.37c.18-.24.46-.38.75-.38s.57.14.75.38l7.5,10.01c.2.27.24.62.11.93s-.42.52-.75.56c-.33.04-.66-.1-.86-.37l-6.7-8.93s-.08-.04-.11,0l-5.07,6.76s-.02.06,0,.08l.95,1.27c.2.27.24.62.11.93s-.42.52-.75.56-.66-.1-.86-.37l-5.52-7.37s-.08-.04-.11,0l-5.52,7.37Z"/>
    </g>
  </g>
</svg>