<?xml version="1.0" encoding="UTF-8"?>
<svg id="Layer_1" data-name="Layer 1" xmlns="http://www.w3.org/2000/svg" viewBox="0 0 61 61">
  <defs>
    <style>
      .cls-1 {
        fill: #bd8928;
      }

      .cls-1, .cls-2 {
        stroke-width: 0px;
      }

      .cls-2 {
        fill: #f3ca7c;
      }
    </style>
  </defs>
  <g id="_05" data-name="05">
    <path class="cls-2" d="M42.56,35.67c3.8,0,6.89-3.09,6.89-6.89h-13.78c0,3.8,3.09,6.89,6.89,6.89Z"/>
    <path class="cls-2" d="M35.67,21.89v5.17h13.78v-5.17c0-3.8-3.09-6.89-6.89-6.89s-6.89,3.09-6.89,6.89Z"/>
    <path class="cls-2" d="M54.61,28.78c0-.95-.77-1.72-1.72-1.72s-1.72.77-1.72,1.72c0,4.75-3.86,8.61-8.61,8.61s-8.61-3.86-8.61-8.61c0-.95-.77-1.72-1.72-1.72s-1.72.77-1.72,1.72c0,6.06,4.5,11.08,10.33,11.92v3.58c0,.95.77,1.72,1.72,1.72s1.72-.77,1.72-1.72v-3.58c5.83-.84,10.33-5.86,10.33-11.92Z"/>
    <path class="cls-1" d="M32.22,25.34c.63,0,1.22.18,1.72.47v-3.92c0-4.74,3.87-8.61,8.61-8.61v-5.17c0-.95-.77-1.72-1.72-1.72H8.11c-.95,0-1.72.77-1.72,1.72v44.79c0,.95.77,1.72,1.72,1.72h32.72c.96,0,1.72-.77,1.72-1.72v-5.17c-1.9,0-3.45-1.54-3.45-3.45v-1.72h-19.81c-.47,0-.86-.38-.86-.86s.39-.85.86-.85h16.62c-2.19-1.22-4.02-3-5.28-5.17h-11.34c-.47,0-.86-.39-.86-.86s.39-.86.86-.86h10.49c-.65-1.6-1.02-3.34-1.02-5.16s1.55-3.45,3.45-3.45ZM12.42,44.28c-1.43,0-2.59-1.15-2.59-2.59s1.15-2.58,2.59-2.58,2.58,1.15,2.58,2.58-1.15,2.59-2.58,2.59ZM12.42,37.39c-1.43,0-2.59-1.15-2.59-2.59s1.15-2.59,2.59-2.59,2.58,1.16,2.58,2.59-1.15,2.59-2.58,2.59ZM20.93,26.88c-.24.12-.51.18-.77.18-.32,0-.63-.09-.9-.26-.51-.32-.82-.87-.82-1.46v-10.33c0-.6.31-1.15.82-1.47.51-.31,1.14-.34,1.67-.07l10.34,5.16c.58.29.95.89.95,1.54s-.37,1.25-.95,1.54l-10.34,5.17Z"/>
  </g>
</svg>