<?xml version="1.0" encoding="UTF-8"?>
<svg id="Layer_1" data-name="Layer 1" xmlns="http://www.w3.org/2000/svg" viewBox="0 0 61 61">
  <defs>
    <style>
      .cls-1 {
        fill: #bd8928;
      }

      .cls-1, .cls-2 {
        stroke-width: 0px;
      }

      .cls-2 {
        fill: #f3ca7c;
      }
    </style>
  </defs>
  <path class="cls-1" d="M11.76,9.28L3.39,17.52h8.37v-8.24Z"/>
  <path class="cls-1" d="M40.3,41.33c-2.28,1.61-5.03,2.51-7.9,2.51-7.46,0-13.54-5.99-13.54-13.34,0-.68.06-1.33.16-1.97-.38.44-.93.7-1.54.7h-6.06c-1.11,0-2.02-.88-2.02-1.99s.91-1.99,2.02-1.99h6.06c.93,0,1.7.62,1.94,1.45,1.03-3.38,3.4-6.23,6.49-7.9h-4.67c-1.11,0-2.02-.9-2.02-1.99s.91-1.99,2.02-1.99h12.13c1.13,0,2.02.9,2.02,1.99,0,.12-.02.24-.04.36h7.52v-7.05c0-1.1-.91-1.99-2.02-1.99H15.8v11.39c0,1.11-.91,1.99-2.02,1.99H2.2v29.39c0,1.1.91,1.99,2.02,1.99h36.63c1.11,0,2.02-.9,2.02-1.99v-8.66c-.51-.26-1.01-.56-1.48-.9h-1.09ZM17.48,45.15h-6.06c-1.11,0-2.02-.88-2.02-1.99s.91-1.99,2.02-1.99h6.06c1.11,0,2.02.9,2.02,1.99s-.91,1.99-2.02,1.99ZM17.48,37.19h-6.06c-1.11,0-2.02-.88-2.02-1.99s.91-1.99,2.02-1.99h6.06c1.11,0,2.02.9,2.02,1.99s-.91,1.99-2.02,1.99Z"/>
  <path class="cls-2" d="M49.3,21.14h-16.9c-5.24,0-9.5,4.2-9.5,9.36s4.27,9.36,9.5,9.36c2.41,0,4.73-.9,6.47-2.51h3.96c1.76,1.61,4.06,2.51,6.47,2.51,5.24,0,9.5-4.2,9.5-9.36s-4.27-9.36-9.5-9.36ZM50.27,32.49c-1.11,0-2.02-.9-2.02-1.99s.91-1.99,2.02-1.99,2.02.9,2.02,1.99-.91,1.99-2.02,1.99ZM34.36,32.41c-.18.94-.97,1.65-1.96,1.65s-1.78-.72-1.94-1.65c-.95-.16-1.68-.94-1.68-1.91s.73-1.75,1.68-1.91c.16-.94.95-1.65,1.94-1.65s1.78.72,1.96,1.65c.93.16,1.66.94,1.66,1.91s-.73,1.75-1.66,1.91Z"/>
</svg>