<?xml version="1.0" encoding="UTF-8"?>
<svg id="Layer_1" data-name="Layer 1" xmlns="http://www.w3.org/2000/svg" viewBox="0 0 61 61">
  <defs>
    <style>
      .cls-1 {
        fill: #bd8928;
      }

      .cls-1, .cls-2 {
        stroke-width: 0px;
      }

      .cls-2 {
        fill: #f3ca7c;
      }
    </style>
  </defs>
  <path class="cls-1" d="M50.75,51.17c-1.13-1.13-2.21-2.22-3.31-3.31-3.39-3.38-5.08-7.45-5.08-12.24.02-5.35,0-10.69,0-16.04v-.69H1.9v33.56h6.83v6.66c.22-.15.38-.24.52-.36,2.61-1.95,5.21-3.9,7.81-5.87.4-.31.81-.45,1.32-.45,11.1.02,22.21.02,33.31.02h.69v-3c-.61.64-1.11,1.16-1.63,1.73ZM7.08,27.32h6.64v3.28h-6.64v-3.28ZM7.08,34.03h6.64v3.29h-6.64v-3.29ZM27.13,44.01H7.06v-3.28h20.07v3.28ZM37.18,44.01h-6.64v-3.29h6.64v3.29ZM37.19,37.3h-20.07v-3.28h20.07v3.28ZM37.19,30.59h-20.07v-3.28h20.07v3.28Z"/>
  <polygon class="cls-2" points="59.1 8.82 59.1 12.14 45.72 12.14 45.72 1.89 55.79 1.89 55.79 8.82 59.1 8.82"/>
  <path class="cls-2" d="M55.79,35.38c.02,4.04-1.35,7.46-4.26,10.26-.23.22-.45.45-.67.67-.03.02-.06.03-.12.06-2.47-2.15-4.2-4.74-4.78-8.01-.15-.86-.22-1.74-.23-2.61-.02-6.54,0-13.08,0-19.62v-.58h10.06v.66c0,6.39-.03,12.78,0,19.17Z"/>
</svg>