<?xml version="1.0" encoding="UTF-8"?>
<svg id="Layer_1" data-name="Layer 1" xmlns="http://www.w3.org/2000/svg" viewBox="0 0 61 61">
  <defs>
    <style>
      .cls-1 {
        fill: #bd8928;
      }

      .cls-1, .cls-2 {
        stroke-width: 0px;
      }

      .cls-2 {
        fill: #f3ca7c;
      }
    </style>
  </defs>
  <path class="cls-1" d="M40.21,30.21v.49c-.07.05-.14.12-.22.18-.16-.22-.28-.49-.48-.67-1.37-1.34-2.75-2.66-4.13-4-.22-.21-.37-.5-.61-.67-1-.75-2.29-.61-3.27.35-1.46,1.45-2.91,2.91-4.39,4.38-.12.12-.25.24-.46.44v-2.9c0-.87,0-1.73-.02-2.61,0-.63-.3-.96-.93-.96-4.29,0-8.56,0-12.84,0-.67,0-.96.3-.96.99,0,1.86,0,3.72,0,5.58,0,.85.27,1.13,1.13,1.13h12.52c-.89.88-1.64,1.65-2.41,2.41-.58.57-1.07,1.34-1.76,1.63-.7.28-1.61.08-2.41.08-2.65,0-5.31-.04-7.96.02-2.14.04-3.43-1.55-3.41-3.41.06-5.78.06-11.58,0-17.37-.02-1.87,1.34-3.39,3.37-3.38,8.63.05,17.26.05,25.88,0,1.98,0,3.41,1.41,3.4,3.38-.05,4.96-.03,9.94-.03,14.92Z"/>
  <path class="cls-2" d="M48.41,41.58c-4.74-4.76-9.48-9.5-14.22-14.23-.67-.67-1-.67-1.67,0-4.74,4.73-9.49,9.47-14.23,14.21-.65.65-.65.99,0,1.62,4.74,4.74,9.49,9.48,14.23,14.24.66.65,1.02.65,1.67,0,1.61-1.61,3.21-3.21,4.81-4.81,3.13-3.14,6.29-6.29,9.42-9.44.22-.21.37-.51.59-.81-.23-.32-.39-.59-.59-.8ZM30.35,52.7c-2.41-2.42-4.87-4.89-7.34-7.36.55-.55,1.15-1.15,1.7-1.7,2.45,2.46,4.92,4.93,7.33,7.36-.51.52-1.13,1.13-1.69,1.7ZM33.4,49.63c-2.41-2.42-4.87-4.89-7.31-7.32l7.12-7.12c2.41,2.41,4.88,4.88,7.32,7.31-2.31,2.32-4.72,4.71-7.13,7.13ZM42.08,41.13c-2.45-2.45-4.92-4.92-7.36-7.35.53-.52,1.14-1.12,1.69-1.67,2.41,2.4,4.87,4.87,7.34,7.33-.54.54-1.13,1.14-1.67,1.69Z"/>
  <path class="cls-1" d="M53.42,14.5v18.91c0,.77-.29,1.07-1.06,1.08h-.1c-1.98.27-3.73-.23-5.29-1.48-.63-.51-1.4-.83-2.05-1.31-.63-.46-1.29-.66-2.05-.57-.29.03-.58.01-.89.01v-14.3c.09-.01.16-.03.21-.02,1.33.21,2.45-.29,3.53-1.04,1.08-.75,2.24-1.42,3.39-2.08.27-.16.64-.21.97-.22.77-.03,1.54-.01,2.32,0,.77.01,1.03.26,1.03,1.02Z"/>
  <path class="cls-1" d="M38.14,6.46c.01,1.25,0,2.5,0,3.74h-21.64c-.02-.17-.05-.28-.05-.41,0-1.13-.01-2.25,0-3.38.03-1.84,1.46-3.31,3.29-3.32,5.03-.02,10.06-.02,15.1,0,1.9.01,3.28,1.46,3.3,3.37Z"/>
  <path class="cls-1" d="M52.98,6.45c-.03,1.53-1.22,2.63-2.89,2.63-.92.01-1.84.01-2.76.01-.98,0-1.96,0-2.93-.01-.7,0-1.01-.3-1.02-1.01-.02-1.17-.02-2.32,0-3.48.01-.68.32-.99,1-1,1.95-.01,3.91-.03,5.86.01,1.65.04,2.78,1.26,2.74,2.85Z"/>
  <rect class="cls-1" x="13.63" y="25.95" width="11.28" height="4.12"/>
  <path class="cls-1" d="M17.82,39.63h-6.9c-1.09,0-1.27-.19-1.27-1.29v-.58h9.67c.01.16.02.24.02.33.03,1.39-.11,1.54-1.52,1.54Z"/>
</svg>