<svg width="61" height="61" viewBox="0 0 61 61" fill="none" xmlns="http://www.w3.org/2000/svg">
<path d="M53.4086 45.441L60.9996 37.8505L53.4086 30.2595L54.6317 29.0364C56.7478 26.9203 56.7478 23.4773 54.6321 21.3612C53.6069 20.3364 52.2437 19.7719 50.7941 19.7719C49.3448 19.7719 47.9817 20.3364 46.9569 21.3612L45.7338 22.5842L38.1428 14.9932L35.9029 17.2336V20.7743C39.8652 21.7186 42.821 25.2886 42.821 29.5358C42.821 33.7834 39.8652 37.3535 35.9029 38.2973V49.2763H29.3316L28.0215 50.5864L38.1428 60.7073L45.7338 53.1163L46.788 54.1709C48.9041 56.287 52.3471 56.287 54.4632 54.1709C56.5793 52.0547 56.5793 48.6118 54.4632 46.4956L53.4086 45.441Z" fill="#F3CA7C"/>
<path d="M32.3247 45.6984V34.9632H33.8154C36.8083 34.9632 39.2428 32.5287 39.2428 29.5358C39.2428 26.5433 36.8083 24.1089 33.8154 24.1089H32.3247V13.3737H21.5895V11.6443C21.5895 8.65132 19.1551 6.21686 16.1621 6.21686C13.1697 6.21686 10.7352 8.65132 10.7352 11.6443V13.3737H0V24.1089H1.49112C4.11686 24.1089 6.31258 25.983 6.81148 28.464C7.02789 28.7665 7.1568 29.136 7.1568 29.5358C7.1568 29.9356 7.02789 30.3051 6.81148 30.6081C6.31258 33.0886 4.11686 34.9632 1.49112 34.9632H0V45.6984H10.7352V43.9685C10.7352 40.9761 13.1697 38.5416 16.1621 38.5416C19.1551 38.5416 21.5895 40.9761 21.5895 43.9685V45.6984H32.3247Z" fill="#BD8928"/>
</svg>
