<svg width="61" height="61" viewBox="0 0 61 61" fill="none" xmlns="http://www.w3.org/2000/svg">
<g clip-path="url(#clip0_13_4)">
<path d="M53.4086 42.441L60.9996 34.8505L53.4086 27.2595L54.6317 26.0364C56.7478 23.9203 56.7478 20.4773 54.6321 18.3612C53.6069 17.3364 52.2437 16.7719 50.7941 16.7719C49.3448 16.7719 47.9817 17.3364 46.9569 18.3612L45.7338 19.5842L38.1428 11.9932L35.9029 14.2336V17.7743C39.8652 18.7186 42.821 22.2886 42.821 26.5358C42.821 30.7834 39.8652 34.3535 35.9029 35.2973V46.2763H29.3316L28.0215 47.5864L38.1428 57.7073L45.7338 50.1163L46.788 51.1709C48.9041 53.287 52.3471 53.287 54.4632 51.1709C56.5793 49.0547 56.5793 45.6118 54.4632 43.4956L53.4086 42.441Z" fill="#F3CA7C" class="iconSecondary"/>
<path d="M32.3247 42.6984V31.9632H33.8154C36.8083 31.9632 39.2428 29.5287 39.2428 26.5358C39.2428 23.5433 36.8083 21.1089 33.8154 21.1089H32.3247V10.3737H21.5895V8.64426C21.5895 5.65132 19.1551 3.21686 16.1621 3.21686C13.1697 3.21686 10.7352 5.65132 10.7352 8.64426V10.3737H0V21.1089H1.49112C4.11686 21.1089 6.31258 22.983 6.81148 25.464C7.02789 25.7665 7.1568 26.136 7.1568 26.5358C7.1568 26.9356 7.02789 27.3051 6.81148 27.6081C6.31258 30.0886 4.11686 31.9632 1.49112 31.9632H0V42.6984H10.7352V40.9685C10.7352 37.9761 13.1697 35.5416 16.1621 35.5416C19.1551 35.5416 21.5895 37.9761 21.5895 40.9685V42.6984H32.3247Z" fill="#BD8928" class="iconPrimary"/>
</g>
<defs>
<clipPath id="clip0_13_4">
<rect width="61" height="61" fill="white"/>
</clipPath>
</defs>
</svg>


