<svg width="55" height="61" viewBox="0 0 55 61" fill="none" xmlns="http://www.w3.org/2000/svg">
<path d="M29.7812 54L27.875 61L35.5 59.25L44.6309 50.8675L38.9122 45.6175L29.7812 54Z" fill="#F3CA7C"/>
<path d="M46.7088 40C46.1779 39.9996 45.6522 40.0952 45.1616 40.2813C44.6709 40.4675 44.2251 40.7406 43.8495 41.085L41.6191 43.1325L47.3379 48.3825L49.5682 46.335C50.1341 45.8161 50.5196 45.1548 50.6758 44.4347C50.832 43.7146 50.752 42.9681 50.4458 42.2898C50.1397 41.6115 49.6211 41.0318 48.9559 40.6242C48.2907 40.2166 47.5086 39.9994 46.7088 40Z" fill="#F3CA7C"/>
<path d="M33.5938 22.5H43.125L31.6875 12V20.75C31.6875 21.2141 31.8883 21.6592 32.2458 21.9874C32.6033 22.3156 33.0882 22.5 33.5938 22.5Z" fill="#BD8928"/>
<path d="M41.2188 38.6175C41.784 38.1049 42.4258 37.6689 43.125 37.3225V26H33.5938C32.077 26 30.6225 25.4469 29.55 24.4623C28.4775 23.4777 27.875 22.1424 27.875 20.75V12H8.8125C7.80136 12 6.83164 12.3687 6.11666 13.0251C5.40167 13.6815 5 14.5717 5 15.5V57.5C5 58.4283 5.40167 59.3185 6.11666 59.9749C6.83164 60.6313 7.80136 61 8.8125 61H23.9481L26.3309 52.25L41.2188 38.6175ZM14.5312 24.25H22.1562C22.6618 24.25 23.1467 24.4344 23.5042 24.7626C23.8617 25.0908 24.0625 25.5359 24.0625 26C24.0625 26.4641 23.8617 26.9092 23.5042 27.2374C23.1467 27.5656 22.6618 27.75 22.1562 27.75H14.5312C14.0257 27.75 13.5408 27.5656 13.1833 27.2374C12.8258 26.9092 12.625 26.4641 12.625 26C12.625 25.5359 12.8258 25.0908 13.1833 24.7626C13.5408 24.4344 14.0257 24.25 14.5312 24.25ZM24.0625 48.75H14.5312C14.0257 48.75 13.5408 48.5656 13.1833 48.2374C12.8258 47.9092 12.625 47.4641 12.625 47C12.625 46.5359 12.8258 46.0908 13.1833 45.7626C13.5408 45.4344 14.0257 45.25 14.5312 45.25H24.0625C24.5681 45.25 25.0529 45.4344 25.4104 45.7626C25.7679 46.0908 25.9688 46.5359 25.9688 47C25.9688 47.4641 25.7679 47.9092 25.4104 48.2374C25.0529 48.5656 24.5681 48.75 24.0625 48.75ZM31.6875 41.75H14.5312C14.0257 41.75 13.5408 41.5656 13.1833 41.2374C12.8258 40.9092 12.625 40.4641 12.625 40C12.625 39.5359 12.8258 39.0908 13.1833 38.7626C13.5408 38.4344 14.0257 38.25 14.5312 38.25H31.6875C32.1931 38.25 32.6779 38.4344 33.0354 38.7626C33.3929 39.0908 33.5938 39.5359 33.5938 40C33.5938 40.4641 33.3929 40.9092 33.0354 41.2374C32.6779 41.5656 32.1931 41.75 31.6875 41.75ZM33.5938 34.75H14.5312C14.0257 34.75 13.5408 34.5656 13.1833 34.2374C12.8258 33.9092 12.625 33.4641 12.625 33C12.625 32.5359 12.8258 32.0908 13.1833 31.7626C13.5408 31.4344 14.0257 31.25 14.5312 31.25H33.5938C34.0993 31.25 34.5842 31.4344 34.9417 31.7626C35.2992 32.0908 35.5 32.5359 35.5 33C35.5 33.4641 35.2992 33.9092 34.9417 34.2374C34.5842 34.5656 34.0993 34.75 33.5938 34.75Z" fill="#BD8928"/>
</svg>
