<svg width="61" height="56" viewBox="0 0 61 56" fill="none" xmlns="http://www.w3.org/2000/svg">
<path d="M32.4062 45.5L30.5 52.5L38.125 50.75L47.2559 42.3675L41.5372 37.1175L32.4062 45.5Z" fill="#F3CA7C"/>
<path d="M49.3338 31.5C48.8029 31.4996 48.2772 31.5952 47.7866 31.7813C47.2959 31.9675 46.8501 32.2406 46.4745 32.585L44.2441 34.6325L49.9629 39.8825L52.1932 37.835C52.7591 37.3161 53.1446 36.6548 53.3008 35.9347C53.457 35.2146 53.377 34.4681 53.0708 33.7898C52.7647 33.1115 52.2461 32.5318 51.5809 32.1242C50.9157 31.7166 50.1336 31.4994 49.3338 31.5Z" fill="#F3CA7C"/>
<path d="M36.2188 14H45.75L34.3125 3.5V12.25C34.3125 12.7141 34.5133 13.1592 34.8708 13.4874C35.2283 13.8156 35.7132 14 36.2188 14Z" fill="#BD8928"/>
<path d="M43.8438 30.1175C44.409 29.6049 45.0508 29.1689 45.75 28.8225V17.5H36.2188C34.702 17.5 33.2475 16.9469 32.175 15.9623C31.1025 14.9777 30.5 13.6424 30.5 12.25V3.5H11.4375C10.4264 3.5 9.45664 3.86875 8.74166 4.52513C8.02667 5.1815 7.625 6.07174 7.625 7V49C7.625 49.9283 8.02667 50.8185 8.74166 51.4749C9.45664 52.1313 10.4264 52.5 11.4375 52.5H26.5731L28.9559 43.75L43.8438 30.1175ZM17.1562 15.75H24.7812C25.2868 15.75 25.7717 15.9344 26.1292 16.2626C26.4867 16.5908 26.6875 17.0359 26.6875 17.5C26.6875 17.9641 26.4867 18.4092 26.1292 18.7374C25.7717 19.0656 25.2868 19.25 24.7812 19.25H17.1562C16.6507 19.25 16.1658 19.0656 15.8083 18.7374C15.4508 18.4092 15.25 17.9641 15.25 17.5C15.25 17.0359 15.4508 16.5908 15.8083 16.2626C16.1658 15.9344 16.6507 15.75 17.1562 15.75ZM26.6875 40.25H17.1562C16.6507 40.25 16.1658 40.0656 15.8083 39.7374C15.4508 39.4092 15.25 38.9641 15.25 38.5C15.25 38.0359 15.4508 37.5908 15.8083 37.2626C16.1658 36.9344 16.6507 36.75 17.1562 36.75H26.6875C27.1931 36.75 27.6779 36.9344 28.0354 37.2626C28.3929 37.5908 28.5938 38.0359 28.5938 38.5C28.5938 38.9641 28.3929 39.4092 28.0354 39.7374C27.6779 40.0656 27.1931 40.25 26.6875 40.25ZM34.3125 33.25H17.1562C16.6507 33.25 16.1658 33.0656 15.8083 32.7374C15.4508 32.4092 15.25 31.9641 15.25 31.5C15.25 31.0359 15.4508 30.5908 15.8083 30.2626C16.1658 29.9344 16.6507 29.75 17.1562 29.75H34.3125C34.8181 29.75 35.3029 29.9344 35.6604 30.2626C36.0179 30.5908 36.2188 31.0359 36.2188 31.5C36.2188 31.9641 36.0179 32.4092 35.6604 32.7374C35.3029 33.0656 34.8181 33.25 34.3125 33.25ZM36.2188 26.25H17.1562C16.6507 26.25 16.1658 26.0656 15.8083 25.7374C15.4508 25.4092 15.25 24.9641 15.25 24.5C15.25 24.0359 15.4508 23.5908 15.8083 23.2626C16.1658 22.9344 16.6507 22.75 17.1562 22.75H36.2188C36.7243 22.75 37.2092 22.9344 37.5667 23.2626C37.9242 23.5908 38.125 24.0359 38.125 24.5C38.125 24.9641 37.9242 25.4092 37.5667 25.7374C37.2092 26.0656 36.7243 26.25 36.2188 26.25Z" fill="#BD8928"/>
</svg>
