<svg width="61" height="65" viewBox="0 0 61 65" fill="none" xmlns="http://www.w3.org/2000/svg">
<g filter="url(#filter0_d_48_27)">
<path d="M43.8011 54.5503C42.4623 53.9537 41.2811 53.0529 40.3516 51.9196C39.4221 50.7862 38.7698 49.4516 38.4468 48.0219C38.4165 47.892 38.3453 47.7752 38.2436 47.6888C37.241 46.8215 36.4005 45.783 35.7614 44.6216C35.5091 44.1763 35.3882 43.6687 35.4127 43.1575C35.4373 42.6463 35.6064 42.1525 35.9003 41.7335C36.1942 41.3146 36.6009 40.9875 37.0732 40.7904C37.5456 40.5933 38.0641 40.5342 38.5686 40.62C38.8955 40.6793 39.2282 40.6998 39.5599 40.6809C39.6493 40.6756 39.7364 40.6506 39.815 40.6078C39.8937 40.565 39.9619 40.5053 40.0149 40.4331C41.2983 38.6774 43.1671 37.4383 45.284 36.9394C45.4161 36.9076 45.5338 36.8322 45.6178 36.7253C45.7018 36.6184 45.7474 36.4863 45.7471 36.3503V31.9059C45.7469 31.7589 45.6939 31.6169 45.5977 31.5057C45.5015 31.3946 45.3685 31.3218 45.223 31.3006C44.8696 31.2478 44.5568 31.1909 44.2683 31.1219C43.0612 30.8301 41.9163 30.3237 40.8883 29.6269C40.7764 29.5468 40.6395 29.5093 40.5024 29.5213C39.011 29.6074 37.5163 29.4229 36.0905 28.9769C33.8484 28.3972 33.3495 25.1768 35.3105 23.9434C35.6871 23.6887 36.0286 23.3854 36.3261 23.0416C36.3843 22.9758 36.4273 22.898 36.4519 22.8138C36.4765 22.7295 36.4821 22.6408 36.4683 22.5541C36.1931 20.6271 36.4663 18.6617 37.2564 16.8828C37.959 15.2832 39.0591 13.8899 40.4521 12.8353C41.845 11.7808 43.4846 11.1002 45.2149 10.8581C45.3649 10.8361 45.5012 10.7589 45.5974 10.6418C45.6935 10.5246 45.7426 10.3758 45.7349 10.2244C45.6712 8.81641 45.0666 7.48733 44.0472 6.51407C43.0278 5.54082 41.6721 4.99846 40.2627 5H19.5439C18.0901 5.00215 16.6963 5.58066 15.6683 6.60871C14.6402 7.63677 14.0617 9.03049 14.0596 10.4844V19.5438C14.0605 19.629 14.0791 19.7131 14.1142 19.7907C14.1493 19.8683 14.2002 19.9378 14.2636 19.9947C14.327 20.0517 14.4016 20.0948 14.4826 20.1213C14.5635 20.1479 14.6491 20.1574 14.7339 20.1491C15.1995 20.0996 15.6673 20.0738 16.1355 20.0719C18.7046 20.0743 21.2186 20.816 23.3776 22.2085C25.5365 23.6009 27.2491 25.5853 28.3108 27.9247C28.3457 28.003 28.3966 28.0732 28.4603 28.1305C28.524 28.1879 28.599 28.2313 28.6805 28.2578C29.4634 28.5145 30.2819 28.6461 31.1058 28.6478C31.705 28.6506 32.2911 28.8227 32.7967 29.1443C33.3023 29.4659 33.7066 29.9238 33.9631 30.4653C34.2196 31.0068 34.3179 31.6097 34.2465 32.2046C34.1751 32.7995 33.9369 33.3621 33.5596 33.8275C32.2925 35.436 30.7234 36.7815 28.9405 37.7884C28.8102 37.8566 28.7102 37.9711 28.6602 38.1094C27.7077 40.6665 25.9947 42.8705 23.7519 44.4248C21.5091 45.9791 18.844 46.8091 16.1152 46.8031C15.6537 46.7995 15.1927 46.7724 14.7339 46.7219C14.6492 46.7137 14.5636 46.7233 14.4827 46.7499C14.4018 46.7765 14.3273 46.8196 14.2639 46.8765C14.2005 46.9334 14.1496 47.0028 14.1144 47.0804C14.0793 47.158 14.0606 47.242 14.0596 47.3272V51.5156C14.0617 52.9695 14.6402 54.3632 15.6683 55.3913C16.6963 56.4194 18.0901 56.9979 19.5439 57H40.2627C41.6343 57.0003 42.9556 56.4839 43.9636 55.5538C44.0377 55.4855 44.0936 55.4 44.1265 55.3048C44.1594 55.2096 44.1682 55.1078 44.1521 55.0084C44.136 54.909 44.0955 54.8151 44.0343 54.7352C43.973 54.6552 43.8929 54.5917 43.8011 54.5503ZM26.0846 9.46875C25.6183 9.45418 25.1647 9.31351 24.772 9.06172C24.3792 8.80992 24.0621 8.4564 23.8543 8.03875L22.8793 6.21875H36.9314L35.9524 8.03875C35.7445 8.4564 35.4274 8.80992 35.0347 9.06172C34.642 9.31351 34.1884 9.45418 33.7221 9.46875H26.0846ZM34.1689 51.7188H25.6377C25.4761 51.7188 25.3211 51.6546 25.2068 51.5403C25.0925 51.426 25.0283 51.271 25.0283 51.1094C25.0283 50.9478 25.0925 50.7928 25.2068 50.6785C25.3211 50.5642 25.4761 50.5 25.6377 50.5H34.1689C34.3306 50.5 34.4856 50.5642 34.5998 50.6785C34.7141 50.7928 34.7783 50.9478 34.7783 51.1094C34.7783 51.271 34.7141 51.426 34.5998 51.5403C34.4856 51.6546 34.3306 51.7188 34.1689 51.7188Z" fill="#BD8928" class="iconPrimary"/>
<path d="M46.7559 46.8438H48.3654L48.8009 45.2188H47.1914L46.7559 46.8438Z" fill="#BD8928"/>
<path d="M44.4545 38.475C42.8644 39.1138 41.5223 40.2477 40.6268 41.7088C40.6133 41.7301 40.5955 41.7483 40.5745 41.7623C40.5535 41.7763 40.5298 41.7857 40.505 41.79C39.7964 41.9337 39.0673 41.9449 38.3547 41.8229C38.0784 41.776 37.7945 41.8084 37.5359 41.9165C37.2773 42.0245 37.0547 42.2037 36.8939 42.4333C36.7331 42.6628 36.6408 42.9332 36.6276 43.2132C36.6144 43.4931 36.681 43.771 36.8195 44.0146C37.4697 45.2182 38.3701 46.2686 39.4601 47.0952C39.479 47.1084 39.4952 47.1252 39.5076 47.1447C39.52 47.1641 39.5285 47.1858 39.5324 47.2086C40.104 51.1265 43.7919 54.2265 47.6416 54.1843C49.1154 54.1675 50.5568 53.7499 51.8113 52.9761C53.0658 52.2023 54.086 51.1017 54.7624 49.7921C55.4388 48.4826 55.746 47.0136 55.6509 45.5427C55.5558 44.0719 55.0622 42.6547 54.2228 41.4431C53.1692 39.9177 51.6302 38.794 49.8564 38.2551C48.0826 37.7161 46.1786 37.7936 44.4545 38.475ZM51.2316 45.2188H50.0628L49.6277 46.8438H50.8253C50.987 46.8438 51.142 46.908 51.2562 47.0222C51.3705 47.1365 51.4347 47.2915 51.4347 47.4531C51.4347 47.6148 51.3705 47.7698 51.2562 47.884C51.142 47.9983 50.987 48.0625 50.8253 48.0625H49.3011L48.9115 49.5157C48.8908 49.593 48.855 49.6655 48.8063 49.7291C48.7575 49.7926 48.6967 49.8459 48.6274 49.886C48.558 49.926 48.4814 49.952 48.402 49.9625C48.3226 49.9729 48.242 49.9676 48.1646 49.9469C48.0872 49.9262 48.0147 49.8904 47.9512 49.8417C47.8877 49.7929 47.8343 49.7321 47.7943 49.6628C47.7543 49.5934 47.7283 49.5169 47.7178 49.4375C47.7074 49.3581 47.7126 49.2774 47.7334 49.2L48.0381 48.0625H46.4285L46.0344 49.5335C46.0137 49.6109 45.9779 49.6834 45.9292 49.747C45.8804 49.8105 45.8197 49.8638 45.7503 49.9039C45.6809 49.9439 45.6044 49.9699 45.525 49.9803C45.4456 49.9908 45.3649 49.9855 45.2875 49.9648C45.2102 49.9441 45.1377 49.9083 45.0741 49.8595C45.0106 49.8108 44.9573 49.75 44.9172 49.6806C44.8772 49.6113 44.8512 49.5347 44.8407 49.4553C44.8303 49.3759 44.8356 49.2952 44.8563 49.2179L45.1659 48.0625H44.3253C44.1637 48.0625 44.0087 47.9983 43.8944 47.884C43.7802 47.7698 43.716 47.6148 43.716 47.4531C43.716 47.2915 43.7802 47.1365 43.8944 47.0222C44.0087 46.908 44.1637 46.8438 44.3253 46.8438H45.4941L45.9292 45.2188H44.7316C44.57 45.2188 44.415 45.1546 44.3007 45.0403C44.1864 44.926 44.1222 44.771 44.1222 44.6094C44.1222 44.4478 44.1864 44.2928 44.3007 44.1785C44.415 44.0642 44.57 44 44.7316 44H46.2558L46.6454 42.5469C46.6873 42.3906 46.7895 42.2574 46.9296 42.1766C47.0696 42.0957 47.2361 42.0738 47.3923 42.1156C47.5486 42.1575 47.6818 42.2597 47.7626 42.3998C47.8435 42.5398 47.8654 42.7063 47.8236 42.8625L47.5189 44H49.1284L49.5225 42.529C49.5432 42.4516 49.579 42.3791 49.6277 42.3156C49.6765 42.252 49.7373 42.1987 49.8066 42.1587C49.876 42.1186 49.9525 42.0926 50.0319 42.0822C50.1113 42.0717 50.192 42.077 50.2694 42.0977C50.3467 42.1185 50.4193 42.1542 50.4828 42.203C50.5463 42.2517 50.5996 42.3125 50.6397 42.3819C50.6797 42.4512 50.7057 42.5278 50.7162 42.6072C50.7266 42.6866 50.7213 42.7673 50.7006 42.8446L50.3894 44H51.2316C51.3932 44 51.5482 44.0642 51.6625 44.1785C51.7768 44.2928 51.841 44.4478 51.841 44.6094C51.841 44.771 51.7768 44.926 51.6625 45.0403C51.5482 45.1546 51.3932 45.2188 51.2316 45.2188Z" fill="#BD8928" class="iconPrimary"/>
<path d="M38.3723 17.3752C37.5865 19.1342 37.3802 21.0975 37.7833 22.9815C37.7915 23.0216 37.7914 23.063 37.7828 23.103C37.7743 23.1431 37.7576 23.181 37.7337 23.2143C37.2673 23.8967 36.6783 24.4867 35.9966 24.9542C35.7484 25.1252 35.5534 25.3627 35.434 25.6395C35.3146 25.9162 35.2756 26.221 35.3214 26.5189C35.3672 26.8168 35.4961 27.0957 35.6932 27.3237C35.8903 27.5518 36.1476 27.7196 36.4357 27.8081C37.8874 28.2783 39.4237 28.4288 40.939 28.2493C40.9734 28.2442 41.0085 28.246 41.0423 28.2545C41.076 28.263 41.1077 28.2781 41.1356 28.2989C42.7393 29.5203 44.6972 30.1863 46.7131 30.1961C53.3906 30.2265 57.878 22.9201 54.7922 16.9247C51.3256 10.1923 41.4448 10.4202 38.3723 17.3752ZM47.32 25.1655C47.1499 25.2619 46.9577 25.3126 46.7622 25.3126C46.5667 25.3126 46.3745 25.2619 46.2044 25.1655C43.821 23.8106 42.4669 22.1283 42.5246 19.9959C42.5232 19.6819 42.5836 19.3707 42.7024 19.08C42.8213 18.7894 42.9962 18.525 43.2172 18.3019C43.4382 18.0788 43.701 17.9015 43.9906 17.78C44.2802 17.6585 44.5908 17.5952 44.9048 17.5938C45.2624 17.5936 45.6153 17.6746 45.9371 17.8306C46.2588 17.9866 46.5409 18.2136 46.7622 18.4944C46.9835 18.2136 47.2656 17.9866 47.5874 17.8306C47.9091 17.6746 48.262 17.5936 48.6196 17.5938C48.9336 17.5952 49.2443 17.6585 49.5338 17.78C49.8234 17.9015 50.0862 18.0788 50.3072 18.3019C50.5282 18.525 50.7032 18.7894 50.822 19.08C50.9408 19.3707 51.0013 19.6819 50.9998 19.9959C51.0595 22.1283 49.7035 23.8094 47.32 25.1655Z" fill="#BD8928" class="iconPrimary"/>
<path d="M27.6687 37.253C27.6935 37.1808 27.7323 37.1143 27.7829 37.0571C27.8335 37 27.895 36.9535 27.9637 36.9203C29.7758 35.9819 31.3633 34.6623 32.6173 33.0524C32.8479 32.7656 32.9931 32.4197 33.0362 32.0542C33.0792 31.6887 33.0184 31.3184 32.8607 30.9859C32.703 30.6534 32.4548 30.3721 32.1445 30.1741C31.8342 29.9762 31.4744 29.8698 31.1064 29.867C29.9572 29.861 28.8191 29.6417 27.75 29.2202C27.6699 29.1901 27.5968 29.1438 27.5353 29.0844C27.4737 29.0249 27.425 28.9535 27.3921 28.8745C26.4274 26.4927 24.731 24.479 22.5475 23.124C13.9598 17.7412 2.94638 24.8864 4.08103 34.9081C4.75175 40.8313 10.2313 45.7241 16.1393 45.6006C21.124 45.7095 26.1538 42.1439 27.6687 37.253ZM13.2468 38.6054C13.062 38.7137 12.8517 38.7708 12.6375 38.7708H11.0125C10.6892 38.7708 10.3792 38.6424 10.1507 38.4138C9.92213 38.1852 9.79372 37.8752 9.79372 37.552V31.4583C9.79372 31.135 9.92213 30.825 10.1507 30.5965C10.3792 30.3679 10.6892 30.2395 11.0125 30.2395H12.6375C12.8514 30.2391 13.0616 30.2952 13.2468 30.402V38.6054ZM14.4656 38.0594V30.7607C15.6592 29.6533 16.427 27.3986 16.9384 26.3359C17.8387 24.4639 19.6522 26.9749 19.209 28.3265C19.0558 28.7945 18.7312 30.2359 18.7312 30.2359C19.7009 30.2359 20.6309 30.6211 21.3166 31.3067C22.0023 31.9924 22.3875 32.9224 22.3875 33.8921V35.1109C22.3875 36.0806 22.0023 37.0105 21.3166 37.6962C20.6309 38.3819 19.7009 38.7671 18.7312 38.7671H16.4627C16.0843 38.767 15.7112 38.6788 15.3728 38.5095L14.4656 38.0594Z" fill="#F3CA7C" class="iconSecondary"/>
</g>
<defs>
<filter id="filter0_d_48_27" x="0" y="5" width="59.7861" height="60" filterUnits="userSpaceOnUse" color-interpolation-filters="sRGB">
<feFlood flood-opacity="0" result="BackgroundImageFix"/>
<feColorMatrix in="SourceAlpha" type="matrix" values="0 0 0 0 0 0 0 0 0 0 0 0 0 0 0 0 0 0 127 0" result="hardAlpha"/>
<feOffset dy="4"/>
<feGaussianBlur stdDeviation="2"/>
<feComposite in2="hardAlpha" operator="out"/>
<feColorMatrix type="matrix" values="0 0 0 0 0 0 0 0 0 0 0 0 0 0 0 0 0 0 0.25 0"/>
<feBlend mode="normal" in2="BackgroundImageFix" result="effect1_dropShadow_48_27"/>
<feBlend mode="normal" in="SourceGraphic" in2="effect1_dropShadow_48_27" result="shape"/>
</filter>
</defs>
</svg>
