<svg width="61" height="61" viewBox="0 0 61 61" fill="none" xmlns="http://www.w3.org/2000/svg">
<path d="M26.4168 27.1977C32.3869 27.1977 36.5865 17.8565 36.5865 12.7944C36.5865 7.18741 32.0238 2.62463 26.4168 2.62463C20.8098 2.62463 16.2471 7.18741 16.2471 12.7944C16.2471 17.8565 20.4353 27.1977 26.4168 27.1977Z" fill="#BD8928" class="iconPrimary"/>
<path d="M6.94001 54.1542H16.2471V46.8108C16.2471 46.1864 16.7578 45.6757 17.3821 45.6757C18.0063 45.6757 18.5171 46.1864 18.5171 46.8108V54.1542H28.4144V43.0992C28.4144 39.9212 30.9909 37.3447 34.1689 37.3447H35.5651C35.758 34.5412 37.9485 32.2825 40.7293 31.9988C38.5388 30.0919 35.7239 29.0137 32.7161 29.0137C32.353 29.0137 32.0124 29.1953 31.7968 29.4904L26.4168 36.9587L21.0255 29.4904C20.8098 29.1953 20.4693 29.0137 20.1061 29.0137C13.8976 29.0137 8.67655 33.6672 7.96148 39.7737L5.81635 52.8376C5.7596 53.1667 5.85032 53.4959 6.066 53.757C6.28162 54.0066 6.59949 54.1542 6.94001 54.1542Z" fill="#BD8928" class="iconPrimary"/>
<path d="M37.8239 37.7306V39.6147H34.169C32.2509 39.6147 30.6846 41.181 30.6846 43.0992V55.8908C30.6846 57.809 32.2509 59.3753 34.169 59.3753H55.8705C57.7887 59.3753 59.3551 57.809 59.3551 55.8908V43.0992C59.3551 41.181 57.7887 39.6147 55.8705 39.6147H52.2159V37.7306C52.2159 35.8011 50.6495 34.2461 48.72 34.2461H41.3197C39.3902 34.2461 37.8239 35.8011 37.8239 37.7306ZM40.0939 37.7306C40.0939 37.0609 40.65 36.5161 41.3197 36.5161H48.72C49.3896 36.5161 49.9458 37.0609 49.9458 37.7306V39.6147H40.0939V37.7306Z" fill="#F3CA7C" class="iconSecondary"/>
</svg>
