<svg width="61" height="61" viewBox="0 0 61 61" fill="none" xmlns="http://www.w3.org/2000/svg">
<g clip-path="url(#clip0_48_22)">
<path d="M26.4168 29.1977C32.3869 29.1977 36.5865 19.8565 36.5865 14.7944C36.5865 9.18741 32.0238 4.62463 26.4168 4.62463C20.8098 4.62463 16.2471 9.18741 16.2471 14.7944C16.2471 19.8565 20.4353 29.1977 26.4168 29.1977Z" fill="#BD8928"/>
<path d="M6.94001 56.1542H16.2471V48.8108C16.2471 48.1864 16.7578 47.6757 17.3821 47.6757C18.0063 47.6757 18.5171 48.1864 18.5171 48.8108V56.1542H28.4144V45.0992C28.4144 41.9212 30.9909 39.3447 34.1689 39.3447H35.5651C35.758 36.5412 37.9485 34.2825 40.7293 33.9988C38.5388 32.0919 35.7239 31.0137 32.7161 31.0137C32.353 31.0137 32.0124 31.1953 31.7968 31.4904L26.4168 38.9587L21.0255 31.4904C20.8098 31.1953 20.4693 31.0137 20.1061 31.0137C13.8976 31.0137 8.67655 35.6672 7.96148 41.7737L5.81635 54.8376C5.7596 55.1667 5.85032 55.4959 6.066 55.757C6.28162 56.0066 6.59949 56.1542 6.94001 56.1542Z" fill="#BD8928"/>
<path d="M37.8239 39.7306V41.6147H34.169C32.2509 41.6147 30.6846 43.181 30.6846 45.0992V57.8908C30.6846 59.809 32.2509 61.3753 34.169 61.3753H55.8705C57.7887 61.3753 59.3551 59.809 59.3551 57.8908V45.0992C59.3551 43.181 57.7887 41.6147 55.8705 41.6147H52.2159V39.7306C52.2159 37.8011 50.6495 36.2461 48.72 36.2461H41.3197C39.3902 36.2461 37.8239 37.8011 37.8239 39.7306ZM40.0939 39.7306C40.0939 39.0609 40.65 38.5161 41.3197 38.5161H48.72C49.3896 38.5161 49.9458 39.0609 49.9458 39.7306V41.6147H40.0939V39.7306Z" fill="#F3CA7C"/>
</g>
<defs>
<clipPath id="clip0_48_22">
<rect width="61" height="61" fill="white"/>
</clipPath>
</defs>
</svg>
