<svg width="56" height="62" viewBox="0 0 56 62" fill="none" xmlns="http://www.w3.org/2000/svg">
<path d="M47.7371 27.8124H26.1771C22.8924 27.8124 20.2217 30.4939 20.2217 33.7785V55.3278C20.2217 58.6124 22.8924 61.2939 26.1771 61.2939H47.7371C51.0217 61.2939 53.6925 58.6124 53.6925 55.3278V33.7785C53.6925 30.4939 51.0217 27.8124 47.7371 27.8124ZM30.614 42.1139C28.4494 42.1139 26.694 40.3585 26.694 38.2046C26.694 36.0401 28.4494 34.2847 30.614 34.2847C32.7679 34.2847 34.5233 36.0401 34.5233 38.2046C34.5233 40.3585 32.7679 42.1139 30.614 42.1139ZM43.3001 54.8109C41.1463 54.8109 39.3909 53.0555 39.3909 50.9016C39.3909 48.737 41.1463 46.9816 43.3001 46.9816C45.4648 46.9816 47.2094 48.737 47.2094 50.9016C47.2094 53.0555 45.4648 54.8109 43.3001 54.8109Z" fill="#BD8928"/>
<path d="M26.1769 25.6585H35.4708V15.9554C35.4708 12.6708 32.8 10 29.5154 10H7.95535C4.67075 10 2 12.6708 2 15.9554V37.5154C2 40.8 4.67075 43.4708 7.95535 43.4708H18.0677V33.7785C18.0677 29.2985 21.7077 25.6585 26.1769 25.6585ZM25.0892 16.4723C27.2431 16.4723 28.9985 18.2277 28.9985 20.3816C28.9985 22.5462 27.2431 24.2908 25.0892 24.2908C22.9246 24.2908 21.1692 22.5462 21.1692 20.3816C21.1692 18.2277 22.9246 16.4723 25.0892 16.4723ZM12.3923 36.9878C10.2277 36.9878 8.47232 35.2431 8.47232 33.0785C8.47232 30.9139 10.2277 29.1693 12.3923 29.1693C14.5461 29.1693 16.3015 30.9139 16.3015 33.0785C16.3015 35.2431 14.5461 36.9878 12.3923 36.9878ZM12.3923 24.2908C10.2277 24.2908 8.47232 22.5462 8.47232 20.3816C8.47232 18.2277 10.2277 16.4723 12.3923 16.4723C14.5461 16.4723 16.3015 18.2277 16.3015 20.3816C16.3015 22.5462 14.5461 24.2908 12.3923 24.2908Z" fill="#F3CA7C"/>
</svg>
