<svg width="56" height="61" viewBox="0 0 56 61" fill="none" xmlns="http://www.w3.org/2000/svg">
<path d="M47.7371 22.8124H26.1771C22.8924 22.8124 20.2217 25.4939 20.2217 28.7785V50.3278C20.2217 53.6124 22.8924 56.2939 26.1771 56.2939H47.7371C51.0217 56.2939 53.6925 53.6124 53.6925 50.3278V28.7785C53.6925 25.4939 51.0217 22.8124 47.7371 22.8124ZM30.614 37.1139C28.4494 37.1139 26.694 35.3585 26.694 33.2046C26.694 31.0401 28.4494 29.2847 30.614 29.2847C32.7679 29.2847 34.5233 31.0401 34.5233 33.2046C34.5233 35.3585 32.7679 37.1139 30.614 37.1139ZM43.3001 49.8109C41.1463 49.8109 39.3909 48.0555 39.3909 45.9016C39.3909 43.737 41.1463 41.9816 43.3001 41.9816C45.4648 41.9816 47.2094 43.737 47.2094 45.9016C47.2094 48.0555 45.4648 49.8109 43.3001 49.8109Z" fill="#BD8928"/>
<path d="M26.1769 20.6585H35.4708V10.9554C35.4708 7.67081 32.8 5 29.5154 5H7.95535C4.67075 5 2 7.67081 2 10.9554V32.5154C2 35.8 4.67075 38.4708 7.95535 38.4708H18.0677V28.7785C18.0677 24.2985 21.7077 20.6585 26.1769 20.6585ZM25.0892 11.4723C27.2431 11.4723 28.9985 13.2277 28.9985 15.3816C28.9985 17.5462 27.2431 19.2908 25.0892 19.2908C22.9246 19.2908 21.1692 17.5462 21.1692 15.3816C21.1692 13.2277 22.9246 11.4723 25.0892 11.4723ZM12.3923 31.9878C10.2277 31.9878 8.47232 30.2431 8.47232 28.0785C8.47232 25.9139 10.2277 24.1693 12.3923 24.1693C14.5461 24.1693 16.3015 25.9139 16.3015 28.0785C16.3015 30.2431 14.5461 31.9878 12.3923 31.9878ZM12.3923 19.2908C10.2277 19.2908 8.47232 17.5462 8.47232 15.3816C8.47232 13.2277 10.2277 11.4723 12.3923 11.4723C14.5461 11.4723 16.3015 13.2277 16.3015 15.3816C16.3015 17.5462 14.5461 19.2908 12.3923 19.2908Z" fill="#F3CA7C"/>
</svg>
