<svg width="61" height="61" viewBox="0 0 61 61" fill="none" xmlns="http://www.w3.org/2000/svg">
<path d="M52.0584 27.1434C52.0584 21.9691 50.0445 17.1032 46.388 13.4422C42.7314 9.78115 37.8682 7.76132 32.6938 7.75488C32.6855 7.75488 32.6773 7.75488 32.6691 7.75488C30.5791 7.75488 28.5418 8.08247 26.5901 8.72762C27.4413 10.5349 27.9184 12.5519 27.9184 14.6784C27.9184 17.1282 27.2764 19.54 26.0618 21.6529C25.0356 23.4382 23.6201 24.9828 21.9363 26.163V37.4471H15.8105C17.643 42.7735 18.5712 48.3936 18.5712 54.1792V58H38.5844V50.4857H48.7775C50.1088 50.4857 51.3491 49.9562 52.27 48.995C53.1909 48.0336 53.6667 46.7718 53.6096 45.4418L53.3294 38.9091L56.8518 37.1299L57.0003 35.9446L52.0584 27.6463V27.1434Z" fill="#BD8928" class="iconPrimary"/>
<path d="M8.22197 24.1271L8.98208 24.5893V27.6737H12.1902V21.0259L8.90024 17.7358L11.1375 15.4985L13.8494 18.2102L16.5612 15.4985L18.7985 17.7358L15.3544 21.18V27.6737H18.7167V24.5893L19.4769 24.1271C22.7467 22.1389 24.6988 18.6706 24.6988 14.8493C24.6986 8.86696 19.8317 4 13.8493 4C7.86696 4 3 8.86696 3 14.8494C3 18.6707 4.95212 22.139 8.22197 24.1271Z" fill="#F3CA7C" class="iconSecondary"/>
<path d="M8.98242 30.8378H18.717V34.454H8.98242V30.8378Z" fill="#F3CA7C" class="iconSecondary"/>
</svg>
