<svg width="56" height="61" viewBox="0 0 56 61" fill="none" xmlns="http://www.w3.org/2000/svg">
<g clip-path="url(#clip0_53_41)">
<path d="M41.8011 58.5503C40.4623 57.9537 39.2811 57.0529 38.3516 55.9196C37.4221 54.7862 36.7698 53.4516 36.4468 52.0219C36.4165 51.892 36.3453 51.7752 36.2436 51.6888C35.241 50.8215 34.4005 49.783 33.7614 48.6216C33.5091 48.1763 33.3882 47.6687 33.4127 47.1575C33.4373 46.6463 33.6064 46.1525 33.9003 45.7335C34.1942 45.3146 34.6009 44.9875 35.0732 44.7904C35.5456 44.5933 36.0641 44.5342 36.5686 44.62C36.8955 44.6793 37.2282 44.6998 37.5599 44.6809C37.6493 44.6756 37.7364 44.6506 37.815 44.6078C37.8937 44.565 37.9619 44.5053 38.0149 44.4331C39.2983 42.6774 41.1671 41.4383 43.284 40.9394C43.4161 40.9076 43.5338 40.8322 43.6178 40.7253C43.7018 40.6184 43.7474 40.4863 43.7471 40.3503V35.9059C43.7469 35.7589 43.6939 35.6169 43.5977 35.5057C43.5015 35.3946 43.3685 35.3218 43.223 35.3006C42.8696 35.2478 42.5568 35.1909 42.2683 35.1219C41.0612 34.8301 39.9163 34.3237 38.8883 33.6269C38.7764 33.5468 38.6395 33.5093 38.5024 33.5213C37.011 33.6074 35.5163 33.4229 34.0905 32.9769C31.8484 32.3972 31.3495 29.1768 33.3105 27.9434C33.6871 27.6887 34.0286 27.3854 34.3261 27.0416C34.3843 26.9758 34.4273 26.898 34.4519 26.8138C34.4765 26.7295 34.4821 26.6408 34.4683 26.5541C34.1931 24.6271 34.4663 22.6617 35.2564 20.8828C35.959 19.2832 37.0591 17.8899 38.4521 16.8354C39.845 15.7808 41.4846 15.1002 43.2149 14.8581C43.3649 14.8361 43.5012 14.7589 43.5974 14.6418C43.6935 14.5246 43.7426 14.3758 43.7349 14.2244C43.6712 12.8164 43.0666 11.4873 42.0472 10.5141C41.0278 9.54082 39.6721 8.99846 38.2627 9H17.5439C16.0901 9.00215 14.6963 9.58066 13.6683 10.6087C12.6402 11.6368 12.0617 13.0305 12.0596 14.4844V23.5438C12.0605 23.629 12.0791 23.7131 12.1142 23.7907C12.1493 23.8683 12.2002 23.9378 12.2636 23.9947C12.327 24.0517 12.4016 24.0948 12.4826 24.1213C12.5635 24.1479 12.6491 24.1574 12.7339 24.1491C13.1995 24.0996 13.6673 24.0738 14.1355 24.0719C16.7046 24.0743 19.2186 24.816 21.3776 26.2085C23.5365 27.6009 25.2491 29.5853 26.3108 31.9247C26.3457 32.003 26.3966 32.0732 26.4603 32.1305C26.524 32.1879 26.599 32.2313 26.6805 32.2578C27.4634 32.5145 28.2819 32.6461 29.1058 32.6478C29.705 32.6506 30.2911 32.8227 30.7967 33.1443C31.3023 33.4659 31.7066 33.9238 31.9631 34.4653C32.2196 35.0068 32.3179 35.6097 32.2465 36.2046C32.1751 36.7995 31.9369 37.3621 31.5596 37.8275C30.2925 39.436 28.7234 40.7815 26.9405 41.7884C26.8102 41.8566 26.7102 41.9711 26.6602 42.1094C25.7077 44.6665 23.9947 46.8705 21.7519 48.4248C19.5091 49.9791 16.844 50.8091 14.1152 50.8031C13.6537 50.7995 13.1927 50.7724 12.7339 50.7219C12.6492 50.7137 12.5636 50.7233 12.4827 50.7499C12.4018 50.7765 12.3273 50.8196 12.2639 50.8765C12.2005 50.9334 12.1496 51.0028 12.1144 51.0804C12.0793 51.158 12.0606 51.242 12.0596 51.3272V55.5156C12.0617 56.9695 12.6402 58.3632 13.6683 59.3913C14.6963 60.4194 16.0901 60.9979 17.5439 61H38.2627C39.6343 61.0003 40.9556 60.4839 41.9636 59.5538C42.0377 59.4855 42.0936 59.4 42.1265 59.3048C42.1594 59.2096 42.1682 59.1078 42.1521 59.0084C42.136 58.909 42.0955 58.8151 42.0343 58.7352C41.973 58.6552 41.8929 58.5917 41.8011 58.5503ZM24.0846 13.4688C23.6183 13.4542 23.1647 13.3135 22.772 13.0617C22.3792 12.8099 22.0621 12.4564 21.8543 12.0387L20.8793 10.2188H34.9314L33.9524 12.0387C33.7445 12.4564 33.4274 12.8099 33.0347 13.0617C32.642 13.3135 32.1884 13.4542 31.7221 13.4688H24.0846ZM32.1689 55.7188H23.6377C23.4761 55.7188 23.3211 55.6546 23.2068 55.5403C23.0925 55.426 23.0283 55.271 23.0283 55.1094C23.0283 54.9478 23.0925 54.7928 23.2068 54.6785C23.3211 54.5642 23.4761 54.5 23.6377 54.5H32.1689C32.3306 54.5 32.4856 54.5642 32.5998 54.6785C32.7141 54.7928 32.7783 54.9478 32.7783 55.1094C32.7783 55.271 32.7141 55.426 32.5998 55.5403C32.4856 55.6546 32.3306 55.7188 32.1689 55.7188Z" fill="#BD8928"/>
<path d="M44.7559 50.8438H46.3654L46.8009 49.2188H45.1914L44.7559 50.8438Z" fill="#BD8928"/>
<path d="M42.4545 42.475C40.8644 43.1138 39.5223 44.2477 38.6268 45.7088C38.6133 45.7301 38.5955 45.7483 38.5745 45.7623C38.5535 45.7763 38.5298 45.7857 38.505 45.79C37.7964 45.9337 37.0673 45.9449 36.3547 45.8229C36.0784 45.776 35.7945 45.8084 35.5359 45.9165C35.2773 46.0245 35.0547 46.2037 34.8939 46.4333C34.7331 46.6628 34.6408 46.9332 34.6276 47.2132C34.6144 47.4931 34.681 47.771 34.8195 48.0146C35.4697 49.2182 36.3701 50.2686 37.4601 51.0952C37.479 51.1084 37.4952 51.1252 37.5076 51.1447C37.52 51.1641 37.5285 51.1858 37.5324 51.2086C38.104 55.1265 41.7919 58.2265 45.6416 58.1843C47.1154 58.1675 48.5568 57.7499 49.8113 56.9761C51.0658 56.2023 52.086 55.1017 52.7624 53.7921C53.4388 52.4826 53.746 51.0136 53.6509 49.5427C53.5558 48.0719 53.0622 46.6547 52.2228 45.4431C51.1692 43.9177 49.6302 42.794 47.8564 42.2551C46.0826 41.7161 44.1786 41.7936 42.4545 42.475ZM49.2316 49.2188H48.0628L47.6277 50.8438H48.8253C48.987 50.8438 49.142 50.908 49.2562 51.0222C49.3705 51.1365 49.4347 51.2915 49.4347 51.4531C49.4347 51.6148 49.3705 51.7698 49.2562 51.884C49.142 51.9983 48.987 52.0625 48.8253 52.0625H47.3011L46.9115 53.5157C46.8908 53.593 46.855 53.6655 46.8063 53.7291C46.7575 53.7926 46.6967 53.8459 46.6274 53.886C46.558 53.926 46.4814 53.952 46.402 53.9625C46.3226 53.9729 46.242 53.9676 46.1646 53.9469C46.0872 53.9262 46.0147 53.8904 45.9512 53.8417C45.8877 53.7929 45.8343 53.7321 45.7943 53.6628C45.7543 53.5934 45.7283 53.5169 45.7178 53.4375C45.7074 53.3581 45.7126 53.2774 45.7334 53.2L46.0381 52.0625H44.4285L44.0344 53.5335C44.0137 53.6109 43.9779 53.6834 43.9292 53.747C43.8804 53.8105 43.8197 53.8638 43.7503 53.9039C43.6809 53.9439 43.6044 53.9699 43.525 53.9803C43.4456 53.9908 43.3649 53.9855 43.2875 53.9648C43.2102 53.9441 43.1377 53.9083 43.0741 53.8595C43.0106 53.8108 42.9573 53.75 42.9172 53.6806C42.8772 53.6113 42.8512 53.5347 42.8407 53.4553C42.8303 53.3759 42.8356 53.2952 42.8563 53.2179L43.1659 52.0625H42.3253C42.1637 52.0625 42.0087 51.9983 41.8944 51.884C41.7802 51.7698 41.716 51.6148 41.716 51.4531C41.716 51.2915 41.7802 51.1365 41.8944 51.0222C42.0087 50.908 42.1637 50.8438 42.3253 50.8438H43.4941L43.9292 49.2188H42.7316C42.57 49.2188 42.415 49.1546 42.3007 49.0403C42.1864 48.926 42.1222 48.771 42.1222 48.6094C42.1222 48.4478 42.1864 48.2928 42.3007 48.1785C42.415 48.0642 42.57 48 42.7316 48H44.2558L44.6454 46.5469C44.6873 46.3906 44.7895 46.2574 44.9296 46.1766C45.0696 46.0957 45.2361 46.0738 45.3923 46.1156C45.5486 46.1575 45.6818 46.2597 45.7626 46.3998C45.8435 46.5398 45.8654 46.7063 45.8236 46.8625L45.5189 48H47.1284L47.5225 46.529C47.5432 46.4516 47.579 46.3791 47.6277 46.3156C47.6765 46.252 47.7373 46.1987 47.8066 46.1587C47.876 46.1186 47.9525 46.0926 48.0319 46.0822C48.1113 46.0717 48.192 46.077 48.2694 46.0977C48.3467 46.1185 48.4193 46.1542 48.4828 46.203C48.5463 46.2517 48.5996 46.3125 48.6397 46.3819C48.6797 46.4512 48.7057 46.5278 48.7162 46.6072C48.7266 46.6866 48.7213 46.7673 48.7006 46.8446L48.3894 48H49.2316C49.3932 48 49.5482 48.0642 49.6625 48.1785C49.7768 48.2928 49.841 48.4478 49.841 48.6094C49.841 48.771 49.7768 48.926 49.6625 49.0403C49.5482 49.1546 49.3932 49.2188 49.2316 49.2188Z" fill="#BD8928"/>
<path d="M36.3723 21.3752C35.5865 23.1342 35.3802 25.0975 35.7833 26.9815C35.7915 27.0216 35.7914 27.063 35.7828 27.103C35.7743 27.1431 35.7576 27.181 35.7337 27.2143C35.2673 27.8967 34.6783 28.4867 33.9966 28.9542C33.7484 29.1252 33.5534 29.3627 33.434 29.6395C33.3146 29.9162 33.2756 30.221 33.3214 30.5189C33.3672 30.8168 33.4961 31.0957 33.6932 31.3237C33.8903 31.5518 34.1476 31.7196 34.4357 31.8081C35.8874 32.2783 37.4237 32.4288 38.939 32.2493C38.9734 32.2442 39.0085 32.246 39.0423 32.2545C39.076 32.263 39.1077 32.2781 39.1356 32.2989C40.7393 33.5203 42.6972 34.1863 44.7131 34.1961C51.3906 34.2265 55.878 26.9201 52.7922 20.9247C49.3256 14.1923 39.4448 14.4202 36.3723 21.3752ZM45.32 29.1655C45.1499 29.2619 44.9577 29.3126 44.7622 29.3126C44.5667 29.3126 44.3745 29.2619 44.2044 29.1655C41.821 27.8106 40.4669 26.1283 40.5246 23.9959C40.5232 23.6819 40.5836 23.3707 40.7024 23.08C40.8213 22.7894 40.9962 22.525 41.2172 22.3019C41.4382 22.0788 41.701 21.9015 41.9906 21.78C42.2802 21.6585 42.5908 21.5952 42.9048 21.5938C43.2624 21.5936 43.6153 21.6746 43.9371 21.8306C44.2588 21.9866 44.5409 22.2136 44.7622 22.4944C44.9835 22.2136 45.2656 21.9866 45.5874 21.8306C45.9091 21.6746 46.262 21.5936 46.6196 21.5938C46.9336 21.5952 47.2443 21.6585 47.5338 21.78C47.8234 21.9015 48.0862 22.0788 48.3072 22.3019C48.5282 22.525 48.7032 22.7894 48.822 23.08C48.9408 23.3707 49.0013 23.6819 48.9998 23.9959C49.0595 26.1283 47.7035 27.8094 45.32 29.1655Z" fill="#BD8928"/>
<path d="M25.6687 41.253C25.6935 41.1808 25.7323 41.1143 25.7829 41.0571C25.8335 41 25.895 40.9535 25.9637 40.9203C27.7758 39.9819 29.3633 38.6623 30.6173 37.0524C30.8479 36.7656 30.9931 36.4197 31.0362 36.0542C31.0792 35.6887 31.0184 35.3184 30.8607 34.9859C30.703 34.6534 30.4548 34.3721 30.1445 34.1741C29.8342 33.9762 29.4744 33.8698 29.1064 33.867C27.9572 33.861 26.8191 33.6417 25.75 33.2202C25.6699 33.1901 25.5968 33.1438 25.5353 33.0844C25.4737 33.0249 25.425 32.9535 25.3921 32.8745C24.4274 30.4927 22.731 28.479 20.5475 27.124C11.9598 21.7412 0.94638 28.8864 2.08103 38.9081C2.75175 44.8313 8.23125 49.7241 14.1393 49.6006C19.124 49.7095 24.1538 46.1439 25.6687 41.253ZM11.2469 42.6054C11.062 42.7137 10.8517 42.7708 10.6375 42.7708H9.01247C8.68924 42.7708 8.37925 42.6424 8.15069 42.4138C7.92213 42.1852 7.79372 41.8752 7.79372 41.552V35.4583C7.79372 35.135 7.92213 34.825 8.15069 34.5965C8.37925 34.3679 8.68924 34.2395 9.01247 34.2395H10.6375C10.8514 34.2391 11.0616 34.2952 11.2469 34.402V42.6054ZM12.4656 42.0594V34.7607C13.6592 33.6533 14.427 31.3986 14.9384 30.3359C15.8387 28.4639 17.6522 30.9749 17.209 32.3265C17.0558 32.7945 16.7312 34.2359 16.7312 34.2359C17.7009 34.2359 18.6309 34.6211 19.3166 35.3067C20.0023 35.9924 20.3875 36.9224 20.3875 37.8921V39.1109C20.3875 40.0806 20.0023 41.0105 19.3166 41.6962C18.6309 42.3819 17.7009 42.7671 16.7312 42.7671H14.4627C14.0843 42.767 13.7112 42.6788 13.3728 42.5095L12.4656 42.0594Z" fill="#F3CA7C"/>
</g>
<defs>
<clipPath id="clip0_53_41">
<rect width="52" height="52" fill="white" transform="translate(2 9)"/>
</clipPath>
</defs>
</svg>
