<svg width="61" height="61" viewBox="0 0 61 61" fill="none" xmlns="http://www.w3.org/2000/svg">
<path d="M52.0584 30.1434C52.0584 24.9691 50.0445 20.1032 46.388 16.4422C42.7314 12.7811 37.8682 10.7613 32.6938 10.7549C32.6855 10.7549 32.6773 10.7549 32.6691 10.7549C30.5791 10.7549 28.5418 11.0825 26.5901 11.7276C27.4413 13.5349 27.9184 15.5519 27.9184 17.6784C27.9184 20.1282 27.2764 22.54 26.0618 24.6529C25.0356 26.4382 23.6201 27.9828 21.9363 29.163V40.4471H15.8105C17.643 45.7735 18.5712 51.3936 18.5712 57.1792V61H38.5844V53.4857H48.7775C50.1088 53.4857 51.3491 52.9562 52.27 51.995C53.1909 51.0336 53.6667 49.7718 53.6096 48.4418L53.3294 41.9091L56.8518 40.1299L57.0003 38.9446L52.0584 30.6463V30.1434Z" fill="#BD8928"/>
<path d="M8.22197 27.1271L8.98208 27.5893V30.6737H12.1902V24.0259L8.90024 20.7358L11.1375 18.4985L13.8494 21.2102L16.5612 18.4985L18.7985 20.7358L15.3544 24.18V30.6737H18.7167V27.5893L19.4769 27.1271C22.7467 25.1389 24.6988 21.6706 24.6988 17.8493C24.6986 11.867 19.8317 7 13.8493 7C7.86696 7 3 11.867 3 17.8494C3 21.6707 4.95212 25.139 8.22197 27.1271Z" fill="#F3CA7C"/>
<path d="M8.98242 33.8378H18.717V37.454H8.98242V33.8378Z" fill="#F3CA7C"/>
</svg>
