<svg width="60" height="60" viewBox="0 0 60 60" fill="none" xmlns="http://www.w3.org/2000/svg">
<g clip-path="url(#clip0_992_93)">
<path d="M29.5002 14.6C32.4273 14.6 34.8002 12.2271 34.8002 9.3C34.8002 6.37289 32.4273 4 29.5002 4C26.5731 4 24.2002 6.37289 24.2002 9.3C24.2002 12.2271 26.5731 14.6 29.5002 14.6Z" fill="#F3CA7C"/>
<path d="M8.3 19.9C11.2271 19.9 13.6 17.5271 13.6 14.6C13.6 11.6729 11.2271 9.29999 8.3 9.29999C5.37289 9.29999 3 11.6729 3 14.6C3 17.5271 5.37289 19.9 8.3 19.9Z" fill="#BD8928"/>
<path d="M32.1498 17.25H26.8498C23.9348 17.25 21.5498 19.635 21.5498 22.55V27.85H37.4498V22.55C37.4498 19.635 35.0648 17.25 32.1498 17.25Z" fill="#F3CA7C"/>
<path d="M18.9 38.45H13.6V27.85C13.6 24.935 11.215 22.55 8.3 22.55C5.385 22.55 3 24.935 3 27.85V41.1C3 45.605 6.445 49.05 10.95 49.05H16.25V57H26.85V46.4C26.85 41.895 23.405 38.45 18.9 38.45Z" fill="#BD8928"/>
<path d="M50.7004 19.9C53.6275 19.9 56.0004 17.5271 56.0004 14.6C56.0004 11.6729 53.6275 9.29999 50.7004 9.29999C47.7733 9.29999 45.4004 11.6729 45.4004 14.6C45.4004 17.5271 47.7733 19.9 50.7004 19.9Z" fill="#BD8928"/>
<path d="M50.7004 22.55C47.7854 22.55 45.4004 24.935 45.4004 27.85V38.45H40.1004C35.5954 38.45 32.1504 41.895 32.1504 46.4V57H42.7504V49.05H48.0504C52.5554 49.05 56.0004 45.605 56.0004 41.1V27.85C56.0004 24.935 53.6154 22.55 50.7004 22.55Z" fill="#BD8928"/>
<path d="M42.75 30.5H16.25V35.8H42.75V30.5Z" fill="#BD8928"/>
</g>
<defs>
<clipPath id="clip0_992_93">
<rect width="53" height="53" fill="white" transform="translate(3 4)"/>
</clipPath>
</defs>
</svg>
