<svg width="60" height="60" viewBox="0 0 60 60" fill="none" xmlns="http://www.w3.org/2000/svg">
<path d="M13.1621 7.33405H17.768V9.17641H13.1621V7.33405Z" fill="#F3CA7C"/>
<path d="M15.2715 4.30273L16.5742 2.99999L19.338 5.76377L18.0353 7.06652L15.2715 4.30273Z" fill="#F3CA7C"/>
<path d="M29.36 57.7337C29.4788 58.0525 30.0048 58.0515 30.1236 57.7347L30.715 56.1567H28.7686L29.36 57.7337Z" fill="#F3CA7C"/>
<path d="M19.6096 12.8612C19.6096 12.5729 19.6289 12.2891 19.6529 12.0073C16.5126 12.4375 14.0825 15.1319 14.0825 18.3883C14.0825 21.3324 16.0713 23.9006 18.9178 24.633L18.459 26.4182C17.1565 26.0829 15.9976 25.4455 15.0396 24.5971C14.4233 25.6546 14.0825 26.8613 14.0825 28.0929V28.5213H12.2401V28.0929C12.2401 26.3353 12.7754 24.61 13.7573 23.1609C13.0167 22.108 12.5183 20.8829 12.3304 19.5674C11.7031 19.3979 11.0555 19.3095 10.3978 19.3095C6.33444 19.3095 3.02832 22.6156 3.02832 26.6789C3.02832 28.1694 3.48338 29.6074 4.31245 30.8243C4.90753 30.3029 5.56894 29.8441 6.3022 29.4802L7.12298 31.1301C4.59709 32.3838 3.02832 34.9143 3.02832 37.7331C3.02832 41.7965 6.33444 45.1026 10.3978 45.1026C12.2143 45.1026 13.9591 44.4356 15.3104 43.2261L16.5393 44.5987C15.806 45.2555 14.9751 45.776 14.089 46.1638C14.1645 49.6541 17.022 52.472 20.5299 52.472C22.2691 52.472 23.9253 51.7609 25.1358 50.5228V24.2221L22.0038 20.0464C20.4599 17.9867 19.6096 15.435 19.6096 12.8612Z" fill="#BD8928"/>
<path d="M28.0776 54.3143H31.4068L32.0976 52.472H27.3867L28.0776 54.3143Z" fill="#F3CA7C"/>
<path d="M26.0579 11.94C25.5503 11.94 25.1367 12.3527 25.1367 12.8612C25.1367 13.3697 25.5503 13.7824 26.0579 13.7824H26.9791V12.8612C26.9791 12.3527 26.5655 11.94 26.0579 11.94Z" fill="#F3CA7C"/>
<path d="M28.8213 15.6247H30.6637V22.9942H28.8213V15.6247Z" fill="#F3CA7C"/>
<path d="M34.3482 12.8612C34.3482 12.3527 33.9346 11.94 33.427 11.94C32.9195 11.94 32.5059 12.3527 32.5059 12.8612V13.7824H33.427C33.9346 13.7824 34.3482 13.3697 34.3482 12.8612Z" fill="#F3CA7C"/>
<path d="M38.0325 12.8611C38.0325 8.28931 34.3127 4.5705 29.7418 4.5705C25.1709 4.5705 21.4512 8.28931 21.4512 12.8611C21.4512 15.0388 22.1706 17.1981 23.4778 18.9419L26.5177 22.9941H26.9783V15.6247H26.0571C24.5334 15.6247 23.2935 14.3848 23.2935 12.8611C23.2935 11.3375 24.5334 10.0976 26.0571 10.0976C27.5807 10.0976 28.8206 11.3375 28.8206 12.8611V13.7823H30.663V12.8611C30.663 11.3375 31.9029 10.0976 33.4265 10.0976C34.9502 10.0976 36.1901 11.3375 36.1901 12.8611C36.1901 14.3848 34.9502 15.6247 33.4265 15.6247H32.5054V22.9941H32.966L36.0059 18.9419C37.313 17.1981 38.0325 15.0388 38.0325 12.8611Z" fill="#F3CA7C"/>
<path d="M52.3633 31.1292L53.1831 29.4793C53.9173 29.8441 54.5787 30.3019 55.1738 30.8243C56.0029 29.6083 56.4588 28.1694 56.4588 26.6789C56.4588 22.6156 53.1527 19.3095 49.0894 19.3095C48.4317 19.3095 47.7841 19.3979 47.1568 19.5683C46.9688 20.8838 46.4705 22.1089 45.7298 23.1619C46.7109 24.61 47.2452 26.3363 47.2452 28.0929V28.5213H45.4028V28.0929C45.4028 26.8604 45.062 25.6546 44.4457 24.5961C43.4877 25.4436 42.3298 26.082 41.0263 26.4173L40.5675 24.6321C43.4149 23.9006 45.4028 21.3324 45.4028 18.3883C45.4028 15.131 42.9727 12.4375 39.8324 12.0073C39.8564 12.2891 39.8757 12.5729 39.8757 12.8612C39.8757 15.435 39.0255 17.9867 37.4807 20.0464L34.3486 24.2221V50.5219C35.5591 51.76 37.2163 52.472 38.9545 52.472C42.4624 52.472 45.3199 49.6541 45.3955 46.1638C44.5093 45.776 43.6793 45.2555 42.9451 44.5987L44.174 43.2261C45.5253 44.4356 47.2701 45.1026 49.0866 45.1026C53.15 45.1026 56.4561 41.7965 56.4561 37.7331C56.457 34.9143 54.8882 32.3838 52.3633 31.1292Z" fill="#BD8928"/>
<path d="M26.9785 32.206H28.8209V50.6296H26.9785V32.206Z" fill="#F3CA7C"/>
<path d="M30.6641 32.206H32.5064V50.6296H30.6641V32.206Z" fill="#F3CA7C"/>
<path d="M26.9785 24.8365H32.5056V26.6789H26.9785V24.8365Z" fill="#F3CA7C"/>
<path d="M26.9785 28.5212H32.5056V30.3636H26.9785V28.5212Z" fill="#F3CA7C"/>
<path d="M41.7178 7.33405H46.3237V9.17641H41.7178V7.33405Z" fill="#F3CA7C"/>
<path d="M40.1426 5.76562L42.9064 3.00184L44.2091 4.30459L41.4453 7.06837L40.1426 5.76562Z" fill="#F3CA7C"/>
</svg>
