<svg width="60" height="60" viewBox="0 0 60 60" fill="none" xmlns="http://www.w3.org/2000/svg">
<g clip-path="url(#clip0_992_30)">
<path fill-rule="evenodd" clip-rule="evenodd" d="M3 35.8698V31.4374H14.9429C14.9429 39.495 21.4606 46.0291 29.5006 46.0291C37.5405 46.0291 44.0582 39.495 44.0582 31.4374H56.0011V35.8698H51.5633C50.9797 38.8047 49.8272 41.5344 48.2269 43.9388L51.3665 47.0856L45.1123 53.3545L41.9728 50.2076C39.574 51.8116 36.8507 52.9668 33.9226 53.5517V58H25.0785V53.5517C22.1505 52.9668 19.4271 51.8116 17.0284 50.2076L13.8888 53.3545L7.63466 47.0856L10.7742 43.9388C9.17389 41.5344 8.02145 38.8047 7.43787 35.8698H3Z" fill="#BD8928"/>
<path fill-rule="evenodd" clip-rule="evenodd" d="M14.6691 5.88489C17.8743 5.88489 20.4721 8.48877 20.4721 11.7014C20.4721 14.914 17.8743 17.5179 14.6691 17.5179C11.464 17.5179 8.86621 14.914 8.86621 11.7014C8.86621 8.48877 11.464 5.88489 14.6691 5.88489Z" fill="#F3CA7C"/>
<path fill-rule="evenodd" clip-rule="evenodd" d="M55.0342 28.5558C54.5954 23.034 49.9494 18.6504 44.332 18.6504C38.7145 18.6504 34.0686 23.0329 33.6297 28.5558C33.6116 28.7848 33.6818 28.9889 33.8378 29.1566C33.9939 29.3244 34.1907 29.4117 34.4191 29.4117H54.2448C54.4744 29.4117 54.6712 29.3255 54.8261 29.1566C54.9811 28.9877 55.0523 28.7837 55.0342 28.5558Z" fill="#F3CA7C"/>
<path fill-rule="evenodd" clip-rule="evenodd" d="M25.3711 28.5558C24.9323 23.034 20.2864 18.6504 14.6689 18.6504C9.05143 18.6504 4.40546 23.0329 3.96665 28.5558C3.94856 28.7848 4.01868 28.9889 4.17475 29.1566C4.32969 29.3255 4.52761 29.4117 4.75606 29.4117H24.5817C24.8113 29.4117 25.0081 29.3255 25.163 29.1566C25.318 28.9877 25.3892 28.7837 25.3711 28.5558Z" fill="#F3CA7C"/>
<path fill-rule="evenodd" clip-rule="evenodd" d="M44.3322 5.88489C47.5374 5.88489 50.1352 8.48877 50.1352 11.7014C50.1352 14.914 47.5374 17.5179 44.3322 17.5179C41.1271 17.5179 38.5293 14.914 38.5293 11.7014C38.5293 8.48877 41.1271 5.88489 44.3322 5.88489Z" fill="#F3CA7C"/>
<path fill-rule="evenodd" clip-rule="evenodd" d="M37.7816 18.698C35.2675 20.251 33.3347 22.6667 32.4016 25.5268H26.5987C25.6657 22.6667 23.734 20.251 21.2188 18.698C23.1923 16.3004 26.1757 14.7655 29.4996 14.7655C32.8235 14.7655 35.807 16.3004 37.7805 18.698H37.7816Z" fill="#F3CA7C"/>
<path d="M29.5002 13.633C32.7051 13.633 35.3031 11.0289 35.3031 7.81652C35.3031 4.60414 32.7051 2 29.5002 2C26.2953 2 23.6973 4.60414 23.6973 7.81652C23.6973 11.0289 26.2953 13.633 29.5002 13.633Z" fill="#F3CA7C"/>
<path fill-rule="evenodd" clip-rule="evenodd" d="M16.752 31.4374C16.752 38.4941 22.4599 44.2154 29.5001 44.2154C36.5403 44.2154 42.2482 38.4941 42.2482 31.4374H16.752Z" fill="#BD8928"/>
</g>
<defs>
<clipPath id="clip0_992_30">
<rect width="53" height="56" fill="white" transform="translate(3 2)"/>
</clipPath>
</defs>
</svg>
