<?xml version="1.0" encoding="UTF-8"?>
<svg id="Layer_1" data-name="Layer 1" xmlns="http://www.w3.org/2000/svg" viewBox="0 0 61 61">
  <defs>
    <style>
      .cls-1 {
        fill: #050402;
      }

      .cls-1, .cls-2, .cls-3 {
        stroke-width: 0px;
      }

      .cls-2 {
        fill: #bd8928;
      }

      .cls-3 {
        fill: #f3ca7c;
      }
    </style>
  </defs>
  <path class="cls-1" d="M54.9,46.33h-29.36c-.45,0-.81.38-.81.84s.36.84.81.84h29.36c.45,0,.81-.38.81-.84s-.36-.84-.81-.84ZM54.9,49.49h-23.72c-.45,0-.81.37-.81.83s.36.84.81.84h23.72c.45,0,.81-.38.81-.84s-.36-.83-.81-.83ZM37.9,13.13l-2.89-1.72c-.09-.06-.21-.06-.3,0-.1.06-.16.16-.16.27v3.45c0,.12.06.21.16.27.09.06.21.06.3,0l2.89-1.73c.09-.06.15-.16.15-.27s-.06-.21-.15-.27ZM38.28,24.8l-1.69-2.13c-.07-.08-.16-.11-.26-.07-.09.03-.15.12-.15.22v2.13c0,.13.11.23.23.23h1.69c.09,0,.17-.05.21-.13.03-.08.02-.17-.03-.25ZM38.11,26.87h-1.69c-1.03,0-1.85-.86-1.85-1.92v-2.13c0-.26.05-.52.15-.74h-1.62v9.06h5.81v-4.46c-.25.12-.52.19-.8.19ZM37.9,13.13l-2.89-1.72c-.09-.06-.21-.06-.3,0-.1.06-.16.16-.16.27v3.45c0,.12.06.21.16.27.09.06.21.06.3,0l2.89-1.73c.09-.06.15-.16.15-.27s-.06-.21-.15-.27ZM38.11,26.87h-1.69c-1.03,0-1.85-.86-1.85-1.92v-2.13c0-.26.05-.52.15-.74h-1.62v9.06h5.81v-4.46c-.25.12-.52.19-.8.19ZM38.28,24.8l-1.69-2.13c-.07-.08-.16-.11-.26-.07-.09.03-.15.12-.15.22v2.13c0,.13.11.23.23.23h1.69c.09,0,.17-.05.21-.13.03-.08.02-.17-.03-.25ZM37.9,13.13l-2.89-1.72c-.09-.06-.21-.06-.3,0-.1.06-.16.16-.16.27v3.45c0,.12.06.21.16.27.09.06.21.06.3,0l2.89-1.73c.09-.06.15-.16.15-.27s-.06-.21-.15-.27ZM38.28,24.8l-1.69-2.13c-.07-.08-.16-.11-.26-.07-.09.03-.15.12-.15.22v2.13c0,.13.11.23.23.23h1.69c.09,0,.17-.05.21-.13.03-.08.02-.17-.03-.25ZM38.11,26.87h-1.69c-1.03,0-1.85-.86-1.85-1.92v-2.13c0-.26.05-.52.15-.74h-1.62v9.06h5.81v-4.46c-.25.12-.52.19-.8.19ZM44.55,30.38c-.36,0-.64.3-.64.66s.29.67.64.67.64-.3.64-.67-.28-.66-.64-.66ZM51.42,28.17c-.36,0-.64.3-.64.66s.29.67.64.67.64-.3.64-.67-.29-.66-.64-.66ZM43.98,9.88v3.51l1.55-1.22c.36-.28.85-.21,1.12.16l1.14,1.34,2.29-2.17s.06-.05.09-.07c.36-.28.86-.21,1.13.17l.69.96v-2.66h-8.02ZM47.79,12.56c-.37,0-.68-.31-.68-.7s.31-.71.68-.71.68.31.68.71-.31.7-.68.7ZM50.54,13.33l-3.12,2.97c-.33.31-.84.28-1.14-.06-.31-.34-.28-.88.05-1.18l.28-.27-.69-.81-1.93,1.52v1.44h8.02v-1.58l-1.45-2.03ZM46.8,23.5v.93l5.27-1.7v-.93l-5.27,1.7ZM46.8,23.5v.93l5.27-1.7v-.93l-5.27,1.7ZM51.42,28.17c-.36,0-.64.3-.64.66s.29.67.64.67.64-.3.64-.67-.29-.66-.64-.66ZM44.55,30.38c-.36,0-.64.3-.64.66s.29.67.64.67.64-.3.64-.67-.28-.66-.64-.66ZM47.41,16.3c-.33.31-.84.28-1.14-.06-.31-.34-.28-.88.05-1.18l.28-.27-.69-.81-1.93,1.52v1.44h8.02v-1.58l-1.45-2.03-3.12,2.97ZM43.98,9.88v3.51l1.55-1.22c.36-.28.85-.21,1.12.16l1.14,1.34,2.29-2.17s.06-.05.09-.07c.36-.28.86-.21,1.13.17l.69.96v-2.66h-8.02ZM47.79,12.56c-.37,0-.68-.31-.68-.7s.31-.71.68-.71.68.31.68.71-.31.7-.68.7ZM37.9,13.13l-2.89-1.72c-.09-.06-.21-.06-.3,0-.1.06-.16.16-.16.27v3.45c0,.12.06.21.16.27.09.06.21.06.3,0l2.89-1.73c.09-.06.15-.16.15-.27s-.06-.21-.15-.27ZM38.11,26.87h-1.69c-1.03,0-1.85-.86-1.85-1.92v-2.13c0-.26.05-.52.15-.74h-1.62v9.06h5.81v-4.46c-.25.12-.52.19-.8.19ZM36.42,25.18h1.69c.09,0,.17-.05.21-.13.03-.08.02-.17-.03-.25l-1.69-2.13c-.07-.08-.16-.11-.26-.07-.09.03-.15.12-.15.22v2.13c0,.13.11.23.23.23ZM53.61,5.29h-27.17c-.71,0-1.29.6-1.29,1.34v16.98l.66-.54c1.26-1.03,3.08-.79,4.07.52.98,1.31.76,3.19-.5,4.22l-3.51,2.84c-.21.21-.46.36-.73.49v2.64c0,.74.58,1.33,1.29,1.33h12.66l-5.32,9.56h1.86l4.38-7.88,4.38,7.88h1.87l-5.32-9.56h12.66c.71,0,1.29-.6,1.29-1.33V6.63c0-.74-.58-1.34-1.29-1.34ZM39.41,32.82h-6.82c-.61,0-1.12-.53-1.12-1.16v-10.12c0-.64.5-1.16,1.12-1.16h3.91c.27,0,.52.15.67.36,1.05,1.34,2.11,2.68,3.17,4.02.12.16.18.34.18.53v6.37c0,.64-.5,1.16-1.11,1.16ZM36,18.41c-2.65,0-4.81-2.24-4.81-5s2.16-4.99,4.81-4.99,4.82,2.24,4.82,4.99-2.16,5-4.82,5ZM42.35,9.68c0-.41.16-.78.41-1.04.26-.27.62-.44,1.01-.44h8.42c.39,0,.74.17,1.01.44.26.26.41.64.41,1.04v7.45c0,.81-.64,1.48-1.42,1.48h-8.42c-.79,0-1.42-.66-1.42-1.48v-7.45ZM53.69,28.83c0,1.3-1.02,2.35-2.27,2.35s-2.27-1.05-2.27-2.35,1.02-2.35,2.27-2.35c.22,0,.44.04.64.1v-2.1l-5.27,1.7v4.86c0,1.3-1.01,2.35-2.26,2.35s-2.27-1.05-2.27-2.35,1.02-2.34,2.27-2.34c.22,0,.44.03.64.09v-5.91c0-.4.26-.73.62-.82l6.84-2.22c.52-.17,1.05.24,1.05.8v8.18ZM46.8,24.43l5.27-1.7v-.93l-5.27,1.7v.93ZM51.99,15.36l-1.45-2.03-3.12,2.97c-.33.31-.84.28-1.14-.06-.31-.34-.28-.88.05-1.18l.28-.27-.69-.81-1.93,1.52v1.44h8.02v-1.58ZM46.65,12.32l1.14,1.34,2.29-2.17s.06-.05.09-.07c.36-.28.86-.21,1.13.17l.69.96v-2.66h-8.02v3.51l1.55-1.22c.36-.28.85-.21,1.12.16ZM47.79,11.15c.37,0,.68.31.68.71s-.31.7-.68.7-.68-.31-.68-.7.31-.71.68-.71ZM51.42,28.17c-.36,0-.64.3-.64.66s.29.67.64.67.64-.3.64-.67-.29-.66-.64-.66ZM44.55,30.38c-.36,0-.64.3-.64.66s.29.67.64.67.64-.3.64-.67-.28-.66-.64-.66ZM36.42,26.87c-1.03,0-1.85-.86-1.85-1.92v-2.13c0-.26.05-.52.15-.74h-1.62v9.06h5.81v-4.46c-.25.12-.52.19-.8.19h-1.69ZM36.42,25.18h1.69c.09,0,.17-.05.21-.13.03-.08.02-.17-.03-.25l-1.69-2.13c-.07-.08-.16-.11-.26-.07-.09.03-.15.12-.15.22v2.13c0,.13.11.23.23.23ZM35.01,11.41c-.09-.06-.21-.06-.3,0-.1.06-.16.16-.16.27v3.45c0,.12.06.21.16.27.09.06.21.06.3,0l2.89-1.73c.09-.06.15-.16.15-.27s-.06-.21-.15-.27l-2.89-1.72ZM38.28,24.8l-1.69-2.13c-.07-.08-.16-.11-.26-.07-.09.03-.15.12-.15.22v2.13c0,.13.11.23.23.23h1.69c.09,0,.17-.05.21-.13.03-.08.02-.17-.03-.25ZM38.11,26.87h-1.69c-1.03,0-1.85-.86-1.85-1.92v-2.13c0-.26.05-.52.15-.74h-1.62v9.06h5.81v-4.46c-.25.12-.52.19-.8.19ZM37.9,13.13l-2.89-1.72c-.09-.06-.21-.06-.3,0-.1.06-.16.16-.16.27v3.45c0,.12.06.21.16.27.09.06.21.06.3,0l2.89-1.73c.09-.06.15-.16.15-.27s-.06-.21-.15-.27ZM43.98,9.88v3.51l1.55-1.22c.36-.28.85-.21,1.12.16l1.14,1.34,2.29-2.17s.06-.05.09-.07c.36-.28.86-.21,1.13.17l.69.96v-2.66h-8.02ZM47.79,12.56c-.37,0-.68-.31-.68-.7s.31-.71.68-.71.68.31.68.71-.31.7-.68.7ZM50.54,13.33l-3.12,2.97c-.33.31-.84.28-1.14-.06-.31-.34-.28-.88.05-1.18l.28-.27-.69-.81-1.93,1.52v1.44h8.02v-1.58l-1.45-2.03ZM50.54,13.33l-3.12,2.97c-.33.31-.84.28-1.14-.06-.31-.34-.28-.88.05-1.18l.28-.27-.69-.81-1.93,1.52v1.44h8.02v-1.58l-1.45-2.03ZM43.98,9.88v3.51l1.55-1.22c.36-.28.85-.21,1.12.16l1.14,1.34,2.29-2.17s.06-.05.09-.07c.36-.28.86-.21,1.13.17l.69.96v-2.66h-8.02ZM47.79,12.56c-.37,0-.68-.31-.68-.7s.31-.71.68-.71.68.31.68.71-.31.7-.68.7ZM38.11,26.87h-1.69c-1.03,0-1.85-.86-1.85-1.92v-2.13c0-.26.05-.52.15-.74h-1.62v9.06h5.81v-4.46c-.25.12-.52.19-.8.19ZM38.28,24.8l-1.69-2.13c-.07-.08-.16-.11-.26-.07-.09.03-.15.12-.15.22v2.13c0,.13.11.23.23.23h1.69c.09,0,.17-.05.21-.13.03-.08.02-.17-.03-.25ZM37.9,13.13l-2.89-1.72c-.09-.06-.21-.06-.3,0-.1.06-.16.16-.16.27v3.45c0,.12.06.21.16.27.09.06.21.06.3,0l2.89-1.73c.09-.06.15-.16.15-.27s-.06-.21-.15-.27ZM38.28,24.8l-1.69-2.13c-.07-.08-.16-.11-.26-.07-.09.03-.15.12-.15.22v2.13c0,.13.11.23.23.23h1.69c.09,0,.17-.05.21-.13.03-.08.02-.17-.03-.25ZM38.11,26.87h-1.69c-1.03,0-1.85-.86-1.85-1.92v-2.13c0-.26.05-.52.15-.74h-1.62v9.06h5.81v-4.46c-.25.12-.52.19-.8.19ZM38.11,26.87h-1.69c-1.03,0-1.85-.86-1.85-1.92v-2.13c0-.26.05-.52.15-.74h-1.62v9.06h5.81v-4.46c-.25.12-.52.19-.8.19ZM38.28,24.8l-1.69-2.13c-.07-.08-.16-.11-.26-.07-.09.03-.15.12-.15.22v2.13c0,.13.11.23.23.23h1.69c.09,0,.17-.05.21-.13.03-.08.02-.17-.03-.25Z"/>
  <path class="cls-2" d="M46.8,23.5v.93l5.27-1.7v-.93l-5.27,1.7ZM37.9,13.13l-2.89-1.72c-.09-.06-.21-.06-.3,0-.1.06-.16.16-.16.27v3.45c0,.12.06.21.16.27.09.06.21.06.3,0l2.89-1.73c.09-.06.15-.16.15-.27s-.06-.21-.15-.27ZM38.11,26.87h-1.69c-1.03,0-1.85-.86-1.85-1.92v-2.13c0-.26.05-.52.15-.74h-1.62v9.06h5.81v-4.46c-.25.12-.52.19-.8.19ZM38.28,24.8l-1.69-2.13c-.07-.08-.16-.11-.26-.07-.09.03-.15.12-.15.22v2.13c0,.13.11.23.23.23h1.69c.09,0,.17-.05.21-.13.03-.08.02-.17-.03-.25ZM46.8,23.5v.93l5.27-1.7v-.93l-5.27,1.7ZM51.42,28.17c-.36,0-.64.3-.64.66s.29.67.64.67.64-.3.64-.67-.29-.66-.64-.66ZM44.55,30.38c-.36,0-.64.3-.64.66s.29.67.64.67.64-.3.64-.67-.28-.66-.64-.66ZM50.54,13.33l-3.12,2.97c-.33.31-.84.28-1.14-.06-.31-.34-.28-.88.05-1.18l.28-.27-.69-.81-1.93,1.52v1.44h8.02v-1.58l-1.45-2.03ZM43.98,9.88v3.51l1.55-1.22c.36-.28.85-.21,1.12.16l1.14,1.34,2.29-2.17s.06-.05.09-.07c.36-.28.86-.21,1.13.17l.69.96v-2.66h-8.02ZM47.79,12.56c-.37,0-.68-.31-.68-.7s.31-.71.68-.71.68.31.68.71-.31.7-.68.7ZM37.9,13.13l-2.89-1.72c-.09-.06-.21-.06-.3,0-.1.06-.16.16-.16.27v3.45c0,.12.06.21.16.27.09.06.21.06.3,0l2.89-1.73c.09-.06.15-.16.15-.27s-.06-.21-.15-.27ZM38.28,24.8l-1.69-2.13c-.07-.08-.16-.11-.26-.07-.09.03-.15.12-.15.22v2.13c0,.13.11.23.23.23h1.69c.09,0,.17-.05.21-.13.03-.08.02-.17-.03-.25ZM38.11,26.87h-1.69c-1.03,0-1.85-.86-1.85-1.92v-2.13c0-.26.05-.52.15-.74h-1.62v9.06h5.81v-4.46c-.25.12-.52.19-.8.19ZM44.55,30.38c-.36,0-.64.3-.64.66s.29.67.64.67.64-.3.64-.67-.28-.66-.64-.66ZM51.42,28.17c-.36,0-.64.3-.64.66s.29.67.64.67.64-.3.64-.67-.29-.66-.64-.66ZM43.98,9.88v3.51l1.55-1.22c.36-.28.85-.21,1.12.16l1.14,1.34,2.29-2.17s.06-.05.09-.07c.36-.28.86-.21,1.13.17l.69.96v-2.66h-8.02ZM47.79,12.56c-.37,0-.68-.31-.68-.7s.31-.71.68-.71.68.31.68.71-.31.7-.68.7ZM50.54,13.33l-3.12,2.97c-.33.31-.84.28-1.14-.06-.31-.34-.28-.88.05-1.18l.28-.27-.69-.81-1.93,1.52v1.44h8.02v-1.58l-1.45-2.03ZM46.8,23.5v.93l5.27-1.7v-.93l-5.27,1.7ZM46.8,23.5v.93l5.27-1.7v-.93l-5.27,1.7ZM51.42,28.17c-.36,0-.64.3-.64.66s.29.67.64.67.64-.3.64-.67-.29-.66-.64-.66ZM44.55,30.38c-.36,0-.64.3-.64.66s.29.67.64.67.64-.3.64-.67-.28-.66-.64-.66ZM50.54,13.33l-3.12,2.97c-.33.31-.84.28-1.14-.06-.31-.34-.28-.88.05-1.18l.28-.27-.69-.81-1.93,1.52v1.44h8.02v-1.58l-1.45-2.03ZM43.98,9.88v3.51l1.55-1.22c.36-.28.85-.21,1.12.16l1.14,1.34,2.29-2.17s.06-.05.09-.07c.36-.28.86-.21,1.13.17l.69.96v-2.66h-8.02ZM47.79,12.56c-.37,0-.68-.31-.68-.7s.31-.71.68-.71.68.31.68.71-.31.7-.68.7ZM37.9,13.13l-2.89-1.72c-.09-.06-.21-.06-.3,0-.1.06-.16.16-.16.27v3.45c0,.12.06.21.16.27.09.06.21.06.3,0l2.89-1.73c.09-.06.15-.16.15-.27s-.06-.21-.15-.27ZM38.11,26.87h-1.69c-1.03,0-1.85-.86-1.85-1.92v-2.13c0-.26.05-.52.15-.74h-1.62v9.06h5.81v-4.46c-.25.12-.52.19-.8.19ZM38.28,24.8l-1.69-2.13c-.07-.08-.16-.11-.26-.07-.09.03-.15.12-.15.22v2.13c0,.13.11.23.23.23h1.69c.09,0,.17-.05.21-.13.03-.08.02-.17-.03-.25ZM37.9,13.13l-2.89-1.72c-.09-.06-.21-.06-.3,0-.1.06-.16.16-.16.27v3.45c0,.12.06.21.16.27.09.06.21.06.3,0l2.89-1.73c.09-.06.15-.16.15-.27s-.06-.21-.15-.27ZM38.28,24.8l-1.69-2.13c-.07-.08-.16-.11-.26-.07-.09.03-.15.12-.15.22v2.13c0,.13.11.23.23.23h1.69c.09,0,.17-.05.21-.13.03-.08.02-.17-.03-.25ZM38.11,26.87h-1.69c-1.03,0-1.85-.86-1.85-1.92v-2.13c0-.26.05-.52.15-.74h-1.62v9.06h5.81v-4.46c-.25.12-.52.19-.8.19ZM44.55,30.38c-.36,0-.64.3-.64.66s.29.67.64.67.64-.3.64-.67-.28-.66-.64-.66ZM51.42,28.17c-.36,0-.64.3-.64.66s.29.67.64.67.64-.3.64-.67-.29-.66-.64-.66ZM43.98,9.88v3.51l1.55-1.22c.36-.28.85-.21,1.12.16l1.14,1.34,2.29-2.17s.06-.05.09-.07c.36-.28.86-.21,1.13.17l.69.96v-2.66h-8.02ZM47.79,12.56c-.37,0-.68-.31-.68-.7s.31-.71.68-.71.68.31.68.71-.31.7-.68.7ZM50.54,13.33l-3.12,2.97c-.33.31-.84.28-1.14-.06-.31-.34-.28-.88.05-1.18l.28-.27-.69-.81-1.93,1.52v1.44h8.02v-1.58l-1.45-2.03ZM46.8,23.5v.93l5.27-1.7v-.93l-5.27,1.7ZM46.8,23.5v.93l5.27-1.7v-.93l-5.27,1.7ZM51.42,28.17c-.36,0-.64.3-.64.66s.29.67.64.67.64-.3.64-.67-.29-.66-.64-.66ZM44.55,30.38c-.36,0-.64.3-.64.66s.29.67.64.67.64-.3.64-.67-.28-.66-.64-.66ZM50.54,13.33l-3.12,2.97c-.33.31-.84.28-1.14-.06-.31-.34-.28-.88.05-1.18l.28-.27-.69-.81-1.93,1.52v1.44h8.02v-1.58l-1.45-2.03ZM43.98,9.88v3.51l1.55-1.22c.36-.28.85-.21,1.12.16l1.14,1.34,2.29-2.17s.06-.05.09-.07c.36-.28.86-.21,1.13.17l.69.96v-2.66h-8.02ZM47.79,12.56c-.37,0-.68-.31-.68-.7s.31-.71.68-.71.68.31.68.71-.31.7-.68.7ZM37.9,13.13l-2.89-1.72c-.09-.06-.21-.06-.3,0-.1.06-.16.16-.16.27v3.45c0,.12.06.21.16.27.09.06.21.06.3,0l2.89-1.73c.09-.06.15-.16.15-.27s-.06-.21-.15-.27ZM38.11,26.87h-1.69c-1.03,0-1.85-.86-1.85-1.92v-2.13c0-.26.05-.52.15-.74h-1.62v9.06h5.81v-4.46c-.25.12-.52.19-.8.19ZM38.28,24.8l-1.69-2.13c-.07-.08-.16-.11-.26-.07-.09.03-.15.12-.15.22v2.13c0,.13.11.23.23.23h1.69c.09,0,.17-.05.21-.13.03-.08.02-.17-.03-.25ZM37.9,13.13l-2.89-1.72c-.09-.06-.21-.06-.3,0-.1.06-.16.16-.16.27v3.45c0,.12.06.21.16.27.09.06.21.06.3,0l2.89-1.73c.09-.06.15-.16.15-.27s-.06-.21-.15-.27ZM38.28,24.8l-1.69-2.13c-.07-.08-.16-.11-.26-.07-.09.03-.15.12-.15.22v2.13c0,.13.11.23.23.23h1.69c.09,0,.17-.05.21-.13.03-.08.02-.17-.03-.25ZM38.11,26.87h-1.69c-1.03,0-1.85-.86-1.85-1.92v-2.13c0-.26.05-.52.15-.74h-1.62v9.06h5.81v-4.46c-.25.12-.52.19-.8.19ZM44.55,30.38c-.36,0-.64.3-.64.66s.29.67.64.67.64-.3.64-.67-.28-.66-.64-.66ZM51.42,28.17c-.36,0-.64.3-.64.66s.29.67.64.67.64-.3.64-.67-.29-.66-.64-.66ZM43.98,9.88v3.51l1.55-1.22c.36-.28.85-.21,1.12.16l1.14,1.34,2.29-2.17s.06-.05.09-.07c.36-.28.86-.21,1.13.17l.69.96v-2.66h-8.02ZM47.79,12.56c-.37,0-.68-.31-.68-.7s.31-.71.68-.71.68.31.68.71-.31.7-.68.7ZM50.54,13.33l-3.12,2.97c-.33.31-.84.28-1.14-.06-.31-.34-.28-.88.05-1.18l.28-.27-.69-.81-1.93,1.52v1.44h8.02v-1.58l-1.45-2.03ZM46.8,23.5v.93l5.27-1.7v-.93l-5.27,1.7ZM46.8,23.5v.93l5.27-1.7v-.93l-5.27,1.7ZM51.42,28.17c-.36,0-.64.3-.64.66s.29.67.64.67.64-.3.64-.67-.29-.66-.64-.66ZM44.55,30.38c-.36,0-.64.3-.64.66s.29.67.64.67.64-.3.64-.67-.28-.66-.64-.66ZM50.54,13.33l-3.12,2.97c-.33.31-.84.28-1.14-.06-.31-.34-.28-.88.05-1.18l.28-.27-.69-.81-1.93,1.52v1.44h8.02v-1.58l-1.45-2.03ZM43.98,9.88v3.51l1.55-1.22c.36-.28.85-.21,1.12.16l1.14,1.34,2.29-2.17s.06-.05.09-.07c.36-.28.86-.21,1.13.17l.69.96v-2.66h-8.02ZM47.79,12.56c-.37,0-.68-.31-.68-.7s.31-.71.68-.71.68.31.68.71-.31.7-.68.7ZM37.9,13.13l-2.89-1.72c-.09-.06-.21-.06-.3,0-.1.06-.16.16-.16.27v3.45c0,.12.06.21.16.27.09.06.21.06.3,0l2.89-1.73c.09-.06.15-.16.15-.27s-.06-.21-.15-.27ZM38.11,26.87h-1.69c-1.03,0-1.85-.86-1.85-1.92v-2.13c0-.26.05-.52.15-.74h-1.62v9.06h5.81v-4.46c-.25.12-.52.19-.8.19ZM38.28,24.8l-1.69-2.13c-.07-.08-.16-.11-.26-.07-.09.03-.15.12-.15.22v2.13c0,.13.11.23.23.23h1.69c.09,0,.17-.05.21-.13.03-.08.02-.17-.03-.25ZM37.9,13.13l-2.89-1.72c-.09-.06-.21-.06-.3,0-.1.06-.16.16-.16.27v3.45c0,.12.06.21.16.27.09.06.21.06.3,0l2.89-1.73c.09-.06.15-.16.15-.27s-.06-.21-.15-.27ZM38.28,24.8l-1.69-2.13c-.07-.08-.16-.11-.26-.07-.09.03-.15.12-.15.22v2.13c0,.13.11.23.23.23h1.69c.09,0,.17-.05.21-.13.03-.08.02-.17-.03-.25ZM38.11,26.87h-1.69c-1.03,0-1.85-.86-1.85-1.92v-2.13c0-.26.05-.52.15-.74h-1.62v9.06h5.81v-4.46c-.25.12-.52.19-.8.19ZM44.55,30.38c-.36,0-.64.3-.64.66s.29.67.64.67.64-.3.64-.67-.28-.66-.64-.66ZM51.42,28.17c-.36,0-.64.3-.64.66s.29.67.64.67.64-.3.64-.67-.29-.66-.64-.66ZM43.98,9.88v3.51l1.55-1.22c.36-.28.85-.21,1.12.16l1.14,1.34,2.29-2.17s.06-.05.09-.07c.36-.28.86-.21,1.13.17l.69.96v-2.66h-8.02ZM47.79,12.56c-.37,0-.68-.31-.68-.7s.31-.71.68-.71.68.31.68.71-.31.7-.68.7ZM50.54,13.33l-3.12,2.97c-.33.31-.84.28-1.14-.06-.31-.34-.28-.88.05-1.18l.28-.27-.69-.81-1.93,1.52v1.44h8.02v-1.58l-1.45-2.03ZM46.8,23.5v.93l5.27-1.7v-.93l-5.27,1.7ZM46.8,23.5v.93l5.27-1.7v-.93l-5.27,1.7ZM51.42,28.17c-.36,0-.64.3-.64.66s.29.67.64.67.64-.3.64-.67-.29-.66-.64-.66ZM44.55,30.38c-.36,0-.64.3-.64.66s.29.67.64.67.64-.3.64-.67-.28-.66-.64-.66ZM50.54,13.33l-3.12,2.97c-.33.31-.84.28-1.14-.06-.31-.34-.28-.88.05-1.18l.28-.27-.69-.81-1.93,1.52v1.44h8.02v-1.58l-1.45-2.03ZM43.98,9.88v3.51l1.55-1.22c.36-.28.85-.21,1.12.16l1.14,1.34,2.29-2.17s.06-.05.09-.07c.36-.28.86-.21,1.13.17l.69.96v-2.66h-8.02ZM47.79,12.56c-.37,0-.68-.31-.68-.7s.31-.71.68-.71.68.31.68.71-.31.7-.68.7ZM37.9,13.13l-2.89-1.72c-.09-.06-.21-.06-.3,0-.1.06-.16.16-.16.27v3.45c0,.12.06.21.16.27.09.06.21.06.3,0l2.89-1.73c.09-.06.15-.16.15-.27s-.06-.21-.15-.27ZM38.11,26.87h-1.69c-1.03,0-1.85-.86-1.85-1.92v-2.13c0-.26.05-.52.15-.74h-1.62v9.06h5.81v-4.46c-.25.12-.52.19-.8.19ZM38.28,24.8l-1.69-2.13c-.07-.08-.16-.11-.26-.07-.09.03-.15.12-.15.22v2.13c0,.13.11.23.23.23h1.69c.09,0,.17-.05.21-.13.03-.08.02-.17-.03-.25ZM37.9,13.13l-2.89-1.72c-.09-.06-.21-.06-.3,0-.1.06-.16.16-.16.27v3.45c0,.12.06.21.16.27.09.06.21.06.3,0l2.89-1.73c.09-.06.15-.16.15-.27s-.06-.21-.15-.27ZM38.28,24.8l-1.69-2.13c-.07-.08-.16-.11-.26-.07-.09.03-.15.12-.15.22v2.13c0,.13.11.23.23.23h1.69c.09,0,.17-.05.21-.13.03-.08.02-.17-.03-.25ZM38.11,26.87h-1.69c-1.03,0-1.85-.86-1.85-1.92v-2.13c0-.26.05-.52.15-.74h-1.62v9.06h5.81v-4.46c-.25.12-.52.19-.8.19ZM44.55,30.38c-.36,0-.64.3-.64.66s.29.67.64.67.64-.3.64-.67-.28-.66-.64-.66ZM51.42,28.17c-.36,0-.64.3-.64.66s.29.67.64.67.64-.3.64-.67-.29-.66-.64-.66ZM43.98,9.88v3.51l1.55-1.22c.36-.28.85-.21,1.12.16l1.14,1.34,2.29-2.17s.06-.05.09-.07c.36-.28.86-.21,1.13.17l.69.96v-2.66h-8.02ZM47.79,12.56c-.37,0-.68-.31-.68-.7s.31-.71.68-.71.68.31.68.71-.31.7-.68.7ZM50.54,13.33l-3.12,2.97c-.33.31-.84.28-1.14-.06-.31-.34-.28-.88.05-1.18l.28-.27-.69-.81-1.93,1.52v1.44h8.02v-1.58l-1.45-2.03ZM46.8,23.5v.93l5.27-1.7v-.93l-5.27,1.7ZM46.8,23.5v.93l5.27-1.7v-.93l-5.27,1.7ZM51.42,28.17c-.36,0-.64.3-.64.66s.29.67.64.67.64-.3.64-.67-.29-.66-.64-.66ZM44.55,30.38c-.36,0-.64.3-.64.66s.29.67.64.67.64-.3.64-.67-.28-.66-.64-.66ZM47.41,16.3c-.33.31-.84.28-1.14-.06-.31-.34-.28-.88.05-1.18l.28-.27-.69-.81-1.93,1.52v1.44h8.02v-1.58l-1.45-2.03-3.12,2.97ZM43.98,9.88v3.51l1.55-1.22c.36-.28.85-.21,1.12.16l1.14,1.34,2.29-2.17s.06-.05.09-.07c.36-.28.86-.21,1.13.17l.69.96v-2.66h-8.02ZM47.79,12.56c-.37,0-.68-.31-.68-.7s.31-.71.68-.71.68.31.68.71-.31.7-.68.7ZM37.9,13.13l-2.89-1.72c-.09-.06-.21-.06-.3,0-.1.06-.16.16-.16.27v3.45c0,.12.06.21.16.27.09.06.21.06.3,0l2.89-1.73c.09-.06.15-.16.15-.27s-.06-.21-.15-.27ZM38.11,26.87h-1.69c-1.03,0-1.85-.86-1.85-1.92v-2.13c0-.26.05-.52.15-.74h-1.62v9.06h5.81v-4.46c-.25.12-.52.19-.8.19ZM36.42,25.18h1.69c.09,0,.17-.05.21-.13.03-.08.02-.17-.03-.25l-1.69-2.13c-.07-.08-.16-.11-.26-.07-.09.03-.15.12-.15.22v2.13c0,.13.11.23.23.23ZM53.61,5.29h-27.17c-.71,0-1.29.6-1.29,1.34v16.98l.66-.54c1.26-1.03,3.08-.79,4.07.52.98,1.31.76,3.19-.5,4.22l-3.51,2.84c-.21.21-.46.36-.73.49v2.64c0,.74.58,1.33,1.29,1.33h12.66l-5.32,9.56h1.86l4.38-7.88,4.38,7.88h1.87l-5.32-9.56h12.66c.71,0,1.29-.6,1.29-1.33V6.63c0-.74-.58-1.34-1.29-1.34ZM39.41,32.82h-6.82c-.61,0-1.12-.53-1.12-1.16v-10.12c0-.64.5-1.16,1.12-1.16h3.91c.27,0,.52.15.67.36,1.05,1.34,2.11,2.68,3.17,4.02.12.16.18.34.18.53v6.37c0,.64-.5,1.16-1.11,1.16ZM36,18.41c-2.65,0-4.81-2.24-4.81-5s2.16-4.99,4.81-4.99,4.82,2.24,4.82,4.99-2.16,5-4.82,5ZM42.35,9.68c0-.41.16-.78.41-1.04.26-.27.62-.44,1.01-.44h8.42c.39,0,.74.17,1.01.44.26.26.41.64.41,1.04v7.45c0,.81-.64,1.48-1.42,1.48h-8.42c-.79,0-1.42-.66-1.42-1.48v-7.45ZM53.69,28.83c0,1.3-1.02,2.35-2.27,2.35s-2.27-1.05-2.27-2.35,1.02-2.35,2.27-2.35c.22,0,.44.04.64.1v-2.1l-5.27,1.7v4.86c0,1.3-1.01,2.35-2.26,2.35s-2.27-1.05-2.27-2.35,1.02-2.34,2.27-2.34c.22,0,.44.03.64.09v-5.91c0-.4.26-.73.62-.82l6.84-2.22c.52-.17,1.05.24,1.05.8v8.18ZM46.8,24.43l5.27-1.7v-.93l-5.27,1.7v.93ZM51.99,15.36l-1.45-2.03-3.12,2.97c-.33.31-.84.28-1.14-.06-.31-.34-.28-.88.05-1.18l.28-.27-.69-.81-1.93,1.52v1.44h8.02v-1.58ZM46.65,12.32l1.14,1.34,2.29-2.17s.06-.05.09-.07c.36-.28.86-.21,1.13.17l.69.96v-2.66h-8.02v3.51l1.55-1.22c.36-.28.85-.21,1.12.16ZM47.79,11.15c.37,0,.68.31.68.71s-.31.7-.68.7-.68-.31-.68-.7.31-.71.68-.71ZM51.42,28.17c-.36,0-.64.3-.64.66s.29.67.64.67.64-.3.64-.67-.29-.66-.64-.66ZM44.55,30.38c-.36,0-.64.3-.64.66s.29.67.64.67.64-.3.64-.67-.28-.66-.64-.66ZM36.42,26.87c-1.03,0-1.85-.86-1.85-1.92v-2.13c0-.26.05-.52.15-.74h-1.62v9.06h5.81v-4.46c-.25.12-.52.19-.8.19h-1.69ZM36.42,25.18h1.69c.09,0,.17-.05.21-.13.03-.08.02-.17-.03-.25l-1.69-2.13c-.07-.08-.16-.11-.26-.07-.09.03-.15.12-.15.22v2.13c0,.13.11.23.23.23ZM35.01,11.41c-.09-.06-.21-.06-.3,0-.1.06-.16.16-.16.27v3.45c0,.12.06.21.16.27.09.06.21.06.3,0l2.89-1.73c.09-.06.15-.16.15-.27s-.06-.21-.15-.27l-2.89-1.72ZM38.28,24.8l-1.69-2.13c-.07-.08-.16-.11-.26-.07-.09.03-.15.12-.15.22v2.13c0,.13.11.23.23.23h1.69c.09,0,.17-.05.21-.13.03-.08.02-.17-.03-.25ZM38.11,26.87h-1.69c-1.03,0-1.85-.86-1.85-1.92v-2.13c0-.26.05-.52.15-.74h-1.62v9.06h5.81v-4.46c-.25.12-.52.19-.8.19ZM37.9,13.13l-2.89-1.72c-.09-.06-.21-.06-.3,0-.1.06-.16.16-.16.27v3.45c0,.12.06.21.16.27.09.06.21.06.3,0l2.89-1.73c.09-.06.15-.16.15-.27s-.06-.21-.15-.27ZM43.98,9.88v3.51l1.55-1.22c.36-.28.85-.21,1.12.16l1.14,1.34,2.29-2.17s.06-.05.09-.07c.36-.28.86-.21,1.13.17l.69.96v-2.66h-8.02ZM47.79,12.56c-.37,0-.68-.31-.68-.7s.31-.71.68-.71.68.31.68.71-.31.7-.68.7ZM50.54,13.33l-3.12,2.97c-.33.31-.84.28-1.14-.06-.31-.34-.28-.88.05-1.18l.28-.27-.69-.81-1.93,1.52v1.44h8.02v-1.58l-1.45-2.03ZM44.55,30.38c-.36,0-.64.3-.64.66s.29.67.64.67.64-.3.64-.67-.28-.66-.64-.66ZM51.42,28.17c-.36,0-.64.3-.64.66s.29.67.64.67.64-.3.64-.67-.29-.66-.64-.66ZM46.8,23.5v.93l5.27-1.7v-.93l-5.27,1.7ZM46.8,23.5v.93l5.27-1.7v-.93l-5.27,1.7ZM50.54,13.33l-3.12,2.97c-.33.31-.84.28-1.14-.06-.31-.34-.28-.88.05-1.18l.28-.27-.69-.81-1.93,1.52v1.44h8.02v-1.58l-1.45-2.03ZM43.98,9.88v3.51l1.55-1.22c.36-.28.85-.21,1.12.16l1.14,1.34,2.29-2.17s.06-.05.09-.07c.36-.28.86-.21,1.13.17l.69.96v-2.66h-8.02ZM47.79,12.56c-.37,0-.68-.31-.68-.7s.31-.71.68-.71.68.31.68.71-.31.7-.68.7ZM51.42,28.17c-.36,0-.64.3-.64.66s.29.67.64.67.64-.3.64-.67-.29-.66-.64-.66ZM44.55,30.38c-.36,0-.64.3-.64.66s.29.67.64.67.64-.3.64-.67-.28-.66-.64-.66ZM38.11,26.87h-1.69c-1.03,0-1.85-.86-1.85-1.92v-2.13c0-.26.05-.52.15-.74h-1.62v9.06h5.81v-4.46c-.25.12-.52.19-.8.19ZM38.28,24.8l-1.69-2.13c-.07-.08-.16-.11-.26-.07-.09.03-.15.12-.15.22v2.13c0,.13.11.23.23.23h1.69c.09,0,.17-.05.21-.13.03-.08.02-.17-.03-.25ZM37.9,13.13l-2.89-1.72c-.09-.06-.21-.06-.3,0-.1.06-.16.16-.16.27v3.45c0,.12.06.21.16.27.09.06.21.06.3,0l2.89-1.73c.09-.06.15-.16.15-.27s-.06-.21-.15-.27ZM38.28,24.8l-1.69-2.13c-.07-.08-.16-.11-.26-.07-.09.03-.15.12-.15.22v2.13c0,.13.11.23.23.23h1.69c.09,0,.17-.05.21-.13.03-.08.02-.17-.03-.25ZM38.11,26.87h-1.69c-1.03,0-1.85-.86-1.85-1.92v-2.13c0-.26.05-.52.15-.74h-1.62v9.06h5.81v-4.46c-.25.12-.52.19-.8.19ZM37.9,13.13l-2.89-1.72c-.09-.06-.21-.06-.3,0-.1.06-.16.16-.16.27v3.45c0,.12.06.21.16.27.09.06.21.06.3,0l2.89-1.73c.09-.06.15-.16.15-.27s-.06-.21-.15-.27ZM43.98,9.88v3.51l1.55-1.22c.36-.28.85-.21,1.12.16l1.14,1.34,2.29-2.17s.06-.05.09-.07c.36-.28.86-.21,1.13.17l.69.96v-2.66h-8.02ZM47.79,12.56c-.37,0-.68-.31-.68-.7s.31-.71.68-.71.68.31.68.71-.31.7-.68.7ZM50.54,13.33l-3.12,2.97c-.33.31-.84.28-1.14-.06-.31-.34-.28-.88.05-1.18l.28-.27-.69-.81-1.93,1.52v1.44h8.02v-1.58l-1.45-2.03ZM44.55,30.38c-.36,0-.64.3-.64.66s.29.67.64.67.64-.3.64-.67-.28-.66-.64-.66ZM51.42,28.17c-.36,0-.64.3-.64.66s.29.67.64.67.64-.3.64-.67-.29-.66-.64-.66ZM46.8,23.5v.93l5.27-1.7v-.93l-5.27,1.7ZM46.8,23.5v.93l5.27-1.7v-.93l-5.27,1.7ZM50.54,13.33l-3.12,2.97c-.33.31-.84.28-1.14-.06-.31-.34-.28-.88.05-1.18l.28-.27-.69-.81-1.93,1.52v1.44h8.02v-1.58l-1.45-2.03ZM43.98,9.88v3.51l1.55-1.22c.36-.28.85-.21,1.12.16l1.14,1.34,2.29-2.17s.06-.05.09-.07c.36-.28.86-.21,1.13.17l.69.96v-2.66h-8.02ZM47.79,12.56c-.37,0-.68-.31-.68-.7s.31-.71.68-.71.68.31.68.71-.31.7-.68.7ZM51.42,28.17c-.36,0-.64.3-.64.66s.29.67.64.67.64-.3.64-.67-.29-.66-.64-.66ZM44.55,30.38c-.36,0-.64.3-.64.66s.29.67.64.67.64-.3.64-.67-.28-.66-.64-.66ZM38.11,26.87h-1.69c-1.03,0-1.85-.86-1.85-1.92v-2.13c0-.26.05-.52.15-.74h-1.62v9.06h5.81v-4.46c-.25.12-.52.19-.8.19ZM38.28,24.8l-1.69-2.13c-.07-.08-.16-.11-.26-.07-.09.03-.15.12-.15.22v2.13c0,.13.11.23.23.23h1.69c.09,0,.17-.05.21-.13.03-.08.02-.17-.03-.25ZM37.9,13.13l-2.89-1.72c-.09-.06-.21-.06-.3,0-.1.06-.16.16-.16.27v3.45c0,.12.06.21.16.27.09.06.21.06.3,0l2.89-1.73c.09-.06.15-.16.15-.27s-.06-.21-.15-.27ZM38.28,24.8l-1.69-2.13c-.07-.08-.16-.11-.26-.07-.09.03-.15.12-.15.22v2.13c0,.13.11.23.23.23h1.69c.09,0,.17-.05.21-.13.03-.08.02-.17-.03-.25ZM38.11,26.87h-1.69c-1.03,0-1.85-.86-1.85-1.92v-2.13c0-.26.05-.52.15-.74h-1.62v9.06h5.81v-4.46c-.25.12-.52.19-.8.19ZM37.9,13.13l-2.89-1.72c-.09-.06-.21-.06-.3,0-.1.06-.16.16-.16.27v3.45c0,.12.06.21.16.27.09.06.21.06.3,0l2.89-1.73c.09-.06.15-.16.15-.27s-.06-.21-.15-.27ZM43.98,9.88v3.51l1.55-1.22c.36-.28.85-.21,1.12.16l1.14,1.34,2.29-2.17s.06-.05.09-.07c.36-.28.86-.21,1.13.17l.69.96v-2.66h-8.02ZM47.79,12.56c-.37,0-.68-.31-.68-.7s.31-.71.68-.71.68.31.68.71-.31.7-.68.7ZM50.54,13.33l-3.12,2.97c-.33.31-.84.28-1.14-.06-.31-.34-.28-.88.05-1.18l.28-.27-.69-.81-1.93,1.52v1.44h8.02v-1.58l-1.45-2.03ZM44.55,30.38c-.36,0-.64.3-.64.66s.29.67.64.67.64-.3.64-.67-.28-.66-.64-.66ZM51.42,28.17c-.36,0-.64.3-.64.66s.29.67.64.67.64-.3.64-.67-.29-.66-.64-.66ZM46.8,23.5v.93l5.27-1.7v-.93l-5.27,1.7ZM46.8,23.5v.93l5.27-1.7v-.93l-5.27,1.7ZM50.54,13.33l-3.12,2.97c-.33.31-.84.28-1.14-.06-.31-.34-.28-.88.05-1.18l.28-.27-.69-.81-1.93,1.52v1.44h8.02v-1.58l-1.45-2.03ZM43.98,9.88v3.51l1.55-1.22c.36-.28.85-.21,1.12.16l1.14,1.34,2.29-2.17s.06-.05.09-.07c.36-.28.86-.21,1.13.17l.69.96v-2.66h-8.02ZM47.79,12.56c-.37,0-.68-.31-.68-.7s.31-.71.68-.71.68.31.68.71-.31.7-.68.7ZM51.42,28.17c-.36,0-.64.3-.64.66s.29.67.64.67.64-.3.64-.67-.29-.66-.64-.66ZM44.55,30.38c-.36,0-.64.3-.64.66s.29.67.64.67.64-.3.64-.67-.28-.66-.64-.66ZM38.11,26.87h-1.69c-1.03,0-1.85-.86-1.85-1.92v-2.13c0-.26.05-.52.15-.74h-1.62v9.06h5.81v-4.46c-.25.12-.52.19-.8.19ZM38.28,24.8l-1.69-2.13c-.07-.08-.16-.11-.26-.07-.09.03-.15.12-.15.22v2.13c0,.13.11.23.23.23h1.69c.09,0,.17-.05.21-.13.03-.08.02-.17-.03-.25ZM37.9,13.13l-2.89-1.72c-.09-.06-.21-.06-.3,0-.1.06-.16.16-.16.27v3.45c0,.12.06.21.16.27.09.06.21.06.3,0l2.89-1.73c.09-.06.15-.16.15-.27s-.06-.21-.15-.27ZM38.28,24.8l-1.69-2.13c-.07-.08-.16-.11-.26-.07-.09.03-.15.12-.15.22v2.13c0,.13.11.23.23.23h1.69c.09,0,.17-.05.21-.13.03-.08.02-.17-.03-.25ZM38.11,26.87h-1.69c-1.03,0-1.85-.86-1.85-1.92v-2.13c0-.26.05-.52.15-.74h-1.62v9.06h5.81v-4.46c-.25.12-.52.19-.8.19ZM37.9,13.13l-2.89-1.72c-.09-.06-.21-.06-.3,0-.1.06-.16.16-.16.27v3.45c0,.12.06.21.16.27.09.06.21.06.3,0l2.89-1.73c.09-.06.15-.16.15-.27s-.06-.21-.15-.27ZM43.98,9.88v3.51l1.55-1.22c.36-.28.85-.21,1.12.16l1.14,1.34,2.29-2.17s.06-.05.09-.07c.36-.28.86-.21,1.13.17l.69.96v-2.66h-8.02ZM47.79,12.56c-.37,0-.68-.31-.68-.7s.31-.71.68-.71.68.31.68.71-.31.7-.68.7ZM50.54,13.33l-3.12,2.97c-.33.31-.84.28-1.14-.06-.31-.34-.28-.88.05-1.18l.28-.27-.69-.81-1.93,1.52v1.44h8.02v-1.58l-1.45-2.03ZM44.55,30.38c-.36,0-.64.3-.64.66s.29.67.64.67.64-.3.64-.67-.28-.66-.64-.66ZM51.42,28.17c-.36,0-.64.3-.64.66s.29.67.64.67.64-.3.64-.67-.29-.66-.64-.66ZM46.8,23.5v.93l5.27-1.7v-.93l-5.27,1.7ZM46.8,23.5v.93l5.27-1.7v-.93l-5.27,1.7ZM50.54,13.33l-3.12,2.97c-.33.31-.84.28-1.14-.06-.31-.34-.28-.88.05-1.18l.28-.27-.69-.81-1.93,1.52v1.44h8.02v-1.58l-1.45-2.03ZM43.98,9.88v3.51l1.55-1.22c.36-.28.85-.21,1.12.16l1.14,1.34,2.29-2.17s.06-.05.09-.07c.36-.28.86-.21,1.13.17l.69.96v-2.66h-8.02ZM47.79,12.56c-.37,0-.68-.31-.68-.7s.31-.71.68-.71.68.31.68.71-.31.7-.68.7ZM51.42,28.17c-.36,0-.64.3-.64.66s.29.67.64.67.64-.3.64-.67-.29-.66-.64-.66ZM44.55,30.38c-.36,0-.64.3-.64.66s.29.67.64.67.64-.3.64-.67-.28-.66-.64-.66ZM38.11,26.87h-1.69c-1.03,0-1.85-.86-1.85-1.92v-2.13c0-.26.05-.52.15-.74h-1.62v9.06h5.81v-4.46c-.25.12-.52.19-.8.19ZM38.28,24.8l-1.69-2.13c-.07-.08-.16-.11-.26-.07-.09.03-.15.12-.15.22v2.13c0,.13.11.23.23.23h1.69c.09,0,.17-.05.21-.13.03-.08.02-.17-.03-.25ZM37.9,13.13l-2.89-1.72c-.09-.06-.21-.06-.3,0-.1.06-.16.16-.16.27v3.45c0,.12.06.21.16.27.09.06.21.06.3,0l2.89-1.73c.09-.06.15-.16.15-.27s-.06-.21-.15-.27ZM38.28,24.8l-1.69-2.13c-.07-.08-.16-.11-.26-.07-.09.03-.15.12-.15.22v2.13c0,.13.11.23.23.23h1.69c.09,0,.17-.05.21-.13.03-.08.02-.17-.03-.25ZM38.11,26.87h-1.69c-1.03,0-1.85-.86-1.85-1.92v-2.13c0-.26.05-.52.15-.74h-1.62v9.06h5.81v-4.46c-.25.12-.52.19-.8.19ZM37.9,13.13l-2.89-1.72c-.09-.06-.21-.06-.3,0-.1.06-.16.16-.16.27v3.45c0,.12.06.21.16.27.09.06.21.06.3,0l2.89-1.73c.09-.06.15-.16.15-.27s-.06-.21-.15-.27ZM43.98,9.88v3.51l1.55-1.22c.36-.28.85-.21,1.12.16l1.14,1.34,2.29-2.17s.06-.05.09-.07c.36-.28.86-.21,1.13.17l.69.96v-2.66h-8.02ZM47.79,12.56c-.37,0-.68-.31-.68-.7s.31-.71.68-.71.68.31.68.71-.31.7-.68.7ZM50.54,13.33l-3.12,2.97c-.33.31-.84.28-1.14-.06-.31-.34-.28-.88.05-1.18l.28-.27-.69-.81-1.93,1.52v1.44h8.02v-1.58l-1.45-2.03ZM44.55,30.38c-.36,0-.64.3-.64.66s.29.67.64.67.64-.3.64-.67-.28-.66-.64-.66ZM51.42,28.17c-.36,0-.64.3-.64.66s.29.67.64.67.64-.3.64-.67-.29-.66-.64-.66ZM46.8,23.5v.93l5.27-1.7v-.93l-5.27,1.7ZM46.8,23.5v.93l5.27-1.7v-.93l-5.27,1.7ZM50.54,13.33l-3.12,2.97c-.33.31-.84.28-1.14-.06-.31-.34-.28-.88.05-1.18l.28-.27-.69-.81-1.93,1.52v1.44h8.02v-1.58l-1.45-2.03ZM43.98,9.88v3.51l1.55-1.22c.36-.28.85-.21,1.12.16l1.14,1.34,2.29-2.17s.06-.05.09-.07c.36-.28.86-.21,1.13.17l.69.96v-2.66h-8.02ZM47.79,12.56c-.37,0-.68-.31-.68-.7s.31-.71.68-.71.68.31.68.71-.31.7-.68.7ZM51.42,28.17c-.36,0-.64.3-.64.66s.29.67.64.67.64-.3.64-.67-.29-.66-.64-.66ZM44.55,30.38c-.36,0-.64.3-.64.66s.29.67.64.67.64-.3.64-.67-.28-.66-.64-.66ZM38.11,26.87h-1.69c-1.03,0-1.85-.86-1.85-1.92v-2.13c0-.26.05-.52.15-.74h-1.62v9.06h5.81v-4.46c-.25.12-.52.19-.8.19ZM38.28,24.8l-1.69-2.13c-.07-.08-.16-.11-.26-.07-.09.03-.15.12-.15.22v2.13c0,.13.11.23.23.23h1.69c.09,0,.17-.05.21-.13.03-.08.02-.17-.03-.25ZM37.9,13.13l-2.89-1.72c-.09-.06-.21-.06-.3,0-.1.06-.16.16-.16.27v3.45c0,.12.06.21.16.27.09.06.21.06.3,0l2.89-1.73c.09-.06.15-.16.15-.27s-.06-.21-.15-.27ZM44.55,30.38c-.36,0-.64.3-.64.66s.29.67.64.67.64-.3.64-.67-.28-.66-.64-.66ZM38.28,24.8l-1.69-2.13c-.07-.08-.16-.11-.26-.07-.09.03-.15.12-.15.22v2.13c0,.13.11.23.23.23h1.69c.09,0,.17-.05.21-.13.03-.08.02-.17-.03-.25ZM38.11,26.87h-1.69c-1.03,0-1.85-.86-1.85-1.92v-2.13c0-.26.05-.52.15-.74h-1.62v9.06h5.81v-4.46c-.25.12-.52.19-.8.19ZM37.9,13.13l-2.89-1.72c-.09-.06-.21-.06-.3,0-.1.06-.16.16-.16.27v3.45c0,.12.06.21.16.27.09.06.21.06.3,0l2.89-1.73c.09-.06.15-.16.15-.27s-.06-.21-.15-.27ZM50.54,13.33l-3.12,2.97c-.33.31-.84.28-1.14-.06-.31-.34-.28-.88.05-1.18l.28-.27-.69-.81-1.93,1.52v1.44h8.02v-1.58l-1.45-2.03ZM43.98,9.88v3.51l1.55-1.22c.36-.28.85-.21,1.12.16l1.14,1.34,2.29-2.17s.06-.05.09-.07c.36-.28.86-.21,1.13.17l.69.96v-2.66h-8.02ZM47.79,12.56c-.37,0-.68-.31-.68-.7s.31-.71.68-.71.68.31.68.71-.31.7-.68.7ZM54.9,46.33h-29.36c-.45,0-.81.38-.81.84s.36.84.81.84h29.36c.45,0,.81-.38.81-.84s-.36-.84-.81-.84ZM54.9,49.49h-23.72c-.45,0-.81.37-.81.83s.36.84.81.84h23.72c.45,0,.81-.38.81-.84s-.36-.83-.81-.83ZM51.42,28.17c-.36,0-.64.3-.64.66s.29.67.64.67.64-.3.64-.67-.29-.66-.64-.66Z"/>
  <path class="cls-1" d="M28.61,24.62c-.44-.58-1.24-.68-1.79-.23l-3.28,2.65h-14.23c-1.77,0-3.97,1.18-3.98,3.26l-.04,8.22c0,1.22.74,2.29,1.79,2.84v-11.06c0-.47.36-.84.81-.84s.81.37.81.84v25.41h3.44v-13.24c0-.46.36-.84.81-.84s.81.38.81.84v13.24h3.69l.04-23.7,1.84-2.31h4.65c.34,0,.64-.13.87-.36l3.55-2.87c.55-.45.65-1.29.22-1.86ZM13.08,18.07c-1.9,0-3.45,1.12-3.45,3.72s1.55,4.7,3.45,4.7,3.45-2.11,3.45-4.7-1.54-3.72-3.45-3.72Z"/>
  <path class="cls-3" d="M13.08,18.07c-1.9,0-3.45,1.12-3.45,3.72s1.55,4.7,3.45,4.7,3.45-2.11,3.45-4.7-1.54-3.72-3.45-3.72ZM28.61,24.62c-.44-.58-1.24-.68-1.79-.23l-3.28,2.65h-14.23c-1.77,0-3.97,1.18-3.98,3.26l-.04,8.22c0,1.22.74,2.29,1.79,2.84v-11.06c0-.47.36-.84.81-.84s.81.37.81.84v25.41h3.44v-13.24c0-.46.36-.84.81-.84s.81.38.81.84v13.24h3.69l.04-23.7,1.84-2.31h4.65c.34,0,.64-.13.87-.36l3.55-2.87c.55-.45.65-1.29.22-1.86Z"/>
</svg>