<?xml version="1.0" encoding="UTF-8"?>
<svg id="Layer_1" data-name="Layer 1" xmlns="http://www.w3.org/2000/svg" viewBox="0 0 61 61">
  <defs>
    <style>
      .cls-1 {
        fill: #000;
      }

      .cls-1, .cls-2, .cls-3, .cls-4, .cls-5 {
        stroke-width: 0px;
      }

      .cls-2 {
        fill: #f5f5f5;
      }

      .cls-3 {
        fill: #bd8928;
      }

      .cls-4 {
        fill: #f6f6f6;
      }

      .cls-5 {
        fill: #f3ca7c;
      }
    </style>
  </defs>
  <path class="cls-4" d="M9.6,26.1c-.42,0-.75-.15-.76-.62-.01-.5.32-.67.77-.67.61.01,1.22.01,1.81.01h1.81c.43,0,.75.15.77.62.01.5-.34.66-.78.66-1.21.01-2.42.01-3.63,0Z"/>
  <path class="cls-4" d="M9.57,19.63c.05-.34.31-.47.63-.51.15.03.3.05.45.1,1.1.31,2.19.62,3.28.92.44.13.78.34.63.86-.15.48-.53.51-.95.39-1.16-.33-2.34-.66-3.5-.98-.38-.12-.61-.35-.53-.78Z"/>
  <path class="cls-4" d="M14.1,30.72c-.85.25-1.72.49-2.58.73-.39.12-.79.23-1.2.32-.34.07-.62-.07-.74-.42-.12-.32-.01-.65.29-.74,1.33-.43,2.69-.8,3.93-1.15.46.01.69.16.77.49.07.38-.1.65-.47.77Z"/>
  <path class="cls-4" d="M11.76,14.11c.22-.38.6-.37.97-.15,1.07.64,2.13,1.28,3.2,1.94.29.17.46.44.34.79-.11.29-.32.43-.67.43-.15,0-.3-.1-.45-.19-1.01-.61-2.04-1.23-3.05-1.85-.39-.23-.59-.55-.34-.97Z"/>
  <path class="cls-4" d="M15.12,10.27c-.2-.29-.18-.6.09-.84.27-.26.59-.27.84-.01.95.97,1.89,1.96,2.83,2.96.11.12.17.27.16.45-.03.23-.15.43-.38.53-.3.13-.57.04-.79-.19-.75-.8-1.5-1.58-2.26-2.37-.16-.17-.34-.33-.48-.52Z"/>
  <path class="cls-4" d="M19.43,6.7c-.19-.34-.09-.66.25-.85.34-.19.67-.1.86.23.66,1.17,1.3,2.36,1.95,3.54.04.09.05.18.07.26-.01.32-.13.57-.43.65-.31.09-.6,0-.76-.29-.31-.52-.6-1.06-.89-1.59-.36-.65-.73-1.29-1.07-1.95Z"/>
  <path class="cls-4" d="M24.48,4.53c-.1-.42-.09-.82.43-.94.48-.12.73.18.83.61.31,1.22.61,2.42.92,3.64.02.1.03.19.05.28-.03.34-.17.58-.51.64-.39.09-.65-.12-.75-.48-.18-.62-.33-1.25-.49-1.87-.16-.63-.33-1.25-.48-1.88Z"/>
  <path class="cls-4" d="M29.87,7.42v-3.87c-.01-.44.18-.74.63-.74s.65.31.65.74c.01,1.29.01,2.58.01,3.87,0,.43-.2.74-.65.74s-.65-.3-.64-.74Z"/>
  <path class="cls-4" d="M31.15,45.89c.26.49.52.96.82,1.42.15.25.13.41-.09.6-.43.41-.83.82-1.24,1.25-.21.22-.35.21-.53-.04-.34-.48-.71-.94-1.09-1.39-.15-.18-.15-.32-.02-.51.31-.47.63-.94.91-1.43.15-.26.35-.28.61-.25.31-.07.48.07.63.35Z"/>
  <path class="cls-4" d="M34.3,8.03c.32-1.34.66-2.69,1.02-4.02.11-.37.42-.52.79-.42.37.11.53.41.44.78-.32,1.3-.66,2.6-1,3.91-.09.31-.29.5-.51.5-.51,0-.83-.34-.74-.75Z"/>
  <path class="cls-4" d="M38.62,9.41c.6-1.07,1.18-2.16,1.78-3.23.18-.32.44-.5.82-.37.29.1.44.31.43.64.01.17-.1.32-.18.47-.58,1.05-1.15,2.08-1.72,3.14-.23.41-.54.67-.99.43-.47-.26-.36-.66-.14-1.07Z"/>
  <path class="cls-4" d="M27.98,11.09c7.53-1.46,14.72,3.72,15.69,11.35.33,2.59.2,5.18-1.24,7.49-.44.71-.97,1.38-1.47,2.05-1.09,1.49-1.84,3.13-2.17,4.95-.07.36-.23.64-.51.89-1.3,1.2-2.8,2.06-4.48,2.57-.47.14-.61.1-.61-.44.03-2.26.01-4.54.01-6.81h.05v-6.57c0-.73.12-1.44.39-2.12.36-.89,1.06-1.13,1.9-.67.75.41,1.28,1.02,1.59,1.81.39.95.11,1.69-.81,2.14-.38.19-.81.29-1.23.38-.41.09-.63.34-.53.76.09.42.38.58.79.5.7-.13,1.38-.33,1.97-.73.98-.65,1.47-1.74,1.2-2.9-.36-1.6-1.33-2.73-2.87-3.32-1.25-.49-2.43.01-3.05,1.23-.49.94-.64,1.96-.64,3.01-.02,4.48-.04,8.96-.04,13.45,0,.57-.18.77-.71.75-.49-.02-.98-.03-1.47-.01-.49.02-.65-.16-.65-.68.02-4.27,0-8.53-.01-12.79,0-1-.06-2-.35-2.97-.66-2.17-2.51-2.79-4.35-1.46-.96.69-1.61,1.59-1.88,2.75-.27,1.21.2,2.33,1.25,2.99.59.37,1.24.57,1.91.69.42.07.72-.09.8-.5.1-.42-.14-.68-.53-.76-.5-.11-.99-.22-1.43-.5-.68-.42-.93-.98-.7-1.75.28-.97.9-1.69,1.78-2.14.76-.38,1.37-.15,1.74.62.33.68.44,1.43.45,2.17.03,4.54.04,9.08.06,13.62,0,.34-.11.41-.42.32-1.88-.53-3.51-1.49-4.91-2.86-.14-.13-.19-.29-.22-.47-.36-2.08-1.25-3.93-2.56-5.59-.94-1.18-1.78-2.42-2.12-3.94-1.84-8.17,3.3-15.12,10.4-16.5Z"/>
  <path class="cls-4" d="M42.18,13.24c-.36-.34-.23-.69.07-1.01.86-.91,1.73-1.8,2.59-2.71.21-.22.46-.36.78-.2.25.12.37.33.37.61,0,.23-.14.39-.29.55-.84.88-1.68,1.74-2.51,2.63-.31.32-.65.48-1.02.14Z"/>
  <path class="cls-4" d="M42.95,50.8c-.02.45-.01.9,0,1.34.01.31-.09.41-.39.41-1.77-.01-3.55-.01-5.32,0-.3,0-.43-.1-.41-.41.02-.45.02-.9,0-1.34-.02-.33.12-.38.41-.38.9.02,1.79.01,2.7.01s1.75.01,2.63-.01c.3,0,.42.07.39.38Z"/>
  <path class="cls-4" d="M44.94,16c1.16-.73,2.34-1.43,3.51-2.12.32-.18.62-.05.8.26.23.38.06.69-.27.9-.78.49-1.57.96-2.36,1.43-.28.18-.57.35-.85.51-.14.07-.27.17-.39.15-.33,0-.53-.14-.64-.39-.12-.28-.05-.57.2-.73Z"/>
  <path class="cls-4" d="M51.43,31.28c-.12.46-.48.58-.93.45l-3.55-.99c-.39-.11-.6-.37-.52-.78.05-.34.31-.48.65-.51.22.06.47.13.71.19,1.02.28,2.04.57,3.05.85.39.11.7.34.59.79Z"/>
  <path class="cls-4" d="M46.82,20.23c1.29-.38,2.59-.75,3.89-1.09.33-.09.62.11.72.46.1.32-.04.63-.34.73-1.32.41-2.66.77-3.9,1.12-.44.01-.68-.15-.76-.47-.1-.34.03-.65.38-.75Z"/>
  <path class="cls-4" d="M52.16,25.47c0,.43-.29.63-.69.63-1.25.01-2.5.01-3.75,0-.43,0-.74-.19-.73-.66.01-.46.33-.62.76-.62.61-.01,1.21,0,1.81,0h1.87c.45,0,.73.21.73.65Z"/>
  <path class="cls-3" d="M42.43,29.94c-.44.71-.97,1.38-1.47,2.05-1.09,1.49-1.84,3.13-2.17,4.95-.07.36-.23.64-.51.89-1.3,1.2-2.8,2.06-4.48,2.57-.47.14-.61.1-.61-.44.03-2.26.01-4.54.01-6.81h.05v-6.57c0-.73.12-1.44.39-2.12.36-.89,1.06-1.13,1.9-.67.75.41,1.28,1.02,1.59,1.81.39.95.11,1.69-.81,2.14-.38.19-.81.29-1.23.38-.41.09-.63.34-.53.76.09.42.38.58.79.5.7-.13,1.38-.33,1.97-.73.98-.65,1.47-1.74,1.2-2.9-.36-1.6-1.33-2.73-2.87-3.32-1.25-.49-2.43.01-3.05,1.23-.49.94-.64,1.96-.64,3.01-.02,4.48-.04,8.96-.04,13.45,0,.57-.18.77-.71.75-.49-.02-.98-.03-1.47-.01-.49.02-.65-.16-.65-.68.02-4.27,0-8.53-.01-12.79,0-1-.06-2-.35-2.97-.66-2.17-2.51-2.79-4.35-1.46-.96.69-1.61,1.59-1.88,2.75-.27,1.21.2,2.33,1.25,2.99.59.37,1.24.57,1.91.69.42.07.72-.09.8-.5.1-.42-.14-.68-.53-.76-.5-.11-.99-.22-1.43-.5-.68-.42-.93-.98-.7-1.75.28-.97.9-1.69,1.78-2.14.76-.38,1.37-.15,1.74.62.33.68.44,1.43.45,2.17.03,4.54.04,9.08.06,13.62,0,.34-.11.41-.42.32-1.88-.53-3.51-1.49-4.91-2.86-.14-.13-.19-.29-.22-.47-.36-2.08-1.25-3.93-2.56-5.59-.94-1.18-1.78-2.42-2.12-3.94-1.84-8.17,3.3-15.12,10.4-16.5,7.53-1.46,14.72,3.72,15.69,11.35.33,2.59.2,5.18-1.24,7.49Z"/>
  <path class="cls-1" d="M42.95,50.8c-.02.45-.01.9,0,1.34.01.31-.09.41-.39.41-1.77-.01-3.55-.01-5.32,0-.3,0-.43-.1-.41-.41.02-.45.02-.9,0-1.34-.02-.33.12-.38.41-.38.9.02,1.79.01,2.7.01s1.75.01,2.63-.01c.3,0,.42.07.39.38Z"/>
  <path class="cls-5" d="M32.7,58.18c-1.46,0-2.87-.01-4.28,0-.28,0-.32-.1-.28-.35.46-2.4.92-4.8,1.38-7.27.71.64.76.64,1.71-.09.49,2.57.98,5.11,1.47,7.7Z"/>
  <path class="cls-5" d="M28.25,50.46c-.51,2.37-.93,4.76-1.36,7.14-.09.45-.26.59-.71.59-4.17-.02-8.33-.02-12.5,0-.47,0-.59-.13-.58-.59.04-3.01-.13-6.03.25-9.03.36-2.93,1.17-5.71,3.24-7.95.36-.41.8-.75,1.2-1.12.2-.2.35-.21.55.05,2.59,3.33,6.01,5.25,10.26,5.89-.34.53-.66,1.05-.99,1.55-.27.39-.29.79.07,1.11.75.66.77,1.42.57,2.36Z"/>
  <path class="cls-5" d="M47.86,52.59c.01-2.04-.12-4.07-.57-6.06-.61-2.72-1.77-5.11-3.96-6.94-.36-.3-.52-.26-.8.1-2.36,2.97-5.4,4.82-9.1,5.57-1.06.21-1.07.19-.52,1.13.95,1.62.97,1.34-.31,2.61-.17.18-.28.34-.22.61.52,2.69,1.04,5.38,1.54,8.07.07.36.2.5.61.5,2.13-.03,4.26-.01,6.39-.01s4.23-.02,6.34.01c.47,0,.64-.1.63-.6-.03-1.66-.02-3.33-.02-4.99ZM44.24,52.95c-.01.7-.18.89-.85.9h-6.99c-.65-.01-.85-.21-.86-.83v-3.05c.01-.63.21-.82.86-.82,1.17-.01,2.35,0,3.52,0s2.27-.01,3.4,0c.76,0,.92.15.92.94v2.87Z"/>
  <path class="cls-5" d="M31.88,47.91c-.43.41-.83.82-1.24,1.25-.21.22-.35.21-.53-.04-.34-.48-.71-.94-1.09-1.39-.15-.18-.15-.32-.02-.51.31-.47.63-.94.91-1.43.15-.26.35-.28.61-.25.31-.07.48.07.63.35.26.49.52.96.82,1.42.15.25.13.41-.09.6Z"/>
  <path class="cls-3" d="M31.16,7.42c0,.43-.2.74-.65.74s-.65-.3-.64-.74v-3.87c-.01-.44.18-.74.63-.74s.65.31.65.74c.01,1.29.01,2.58.01,3.87Z"/>
  <path class="cls-3" d="M36.56,4.37c-.32,1.3-.66,2.6-1,3.91-.09.31-.29.5-.51.5-.51,0-.83-.34-.74-.75.32-1.34.66-2.69,1.02-4.02.11-.37.42-.52.79-.42.37.11.53.41.44.78Z"/>
  <path class="cls-3" d="M22.57,9.88c-.01.32-.13.57-.43.65-.31.09-.6,0-.76-.29-.31-.52-.6-1.06-.89-1.59-.36-.65-.73-1.29-1.07-1.95-.19-.34-.09-.66.25-.85.34-.19.67-.1.86.23.66,1.17,1.3,2.36,1.95,3.54.04.09.05.18.07.26Z"/>
  <path class="cls-3" d="M26.71,8.12c-.03.34-.17.58-.51.64-.39.09-.65-.12-.75-.48-.18-.62-.33-1.25-.49-1.87-.16-.63-.33-1.25-.48-1.88-.1-.42-.09-.82.43-.94.48-.12.73.18.83.61.31,1.22.61,2.42.92,3.64.02.1.03.19.05.28Z"/>
  <path class="cls-3" d="M41.65,6.44c.01.17-.1.32-.18.47-.58,1.05-1.15,2.08-1.72,3.14-.23.41-.54.67-.99.43-.47-.26-.36-.66-.14-1.07.6-1.07,1.18-2.16,1.78-3.23.18-.32.44-.5.82-.37.29.1.44.31.43.64Z"/>
  <path class="cls-3" d="M46,9.92c0,.23-.14.39-.29.55-.84.88-1.68,1.74-2.51,2.63-.31.32-.65.48-1.02.14-.36-.34-.23-.69.07-1.01.86-.91,1.73-1.8,2.59-2.71.21-.22.46-.36.78-.2.25.12.37.33.37.61Z"/>
  <path class="cls-3" d="M19.03,12.82c-.03.23-.15.43-.38.53-.3.13-.57.04-.79-.19-.75-.8-1.5-1.58-2.26-2.37-.16-.17-.34-.33-.48-.52-.2-.29-.18-.6.09-.84.27-.26.59-.27.84-.01.95.97,1.89,1.96,2.83,2.96.11.12.17.27.16.45Z"/>
  <path class="cls-3" d="M16.27,16.7c-.11.29-.32.43-.67.43-.15,0-.3-.1-.45-.19-1.01-.61-2.04-1.23-3.05-1.85-.39-.23-.59-.55-.34-.97.22-.38.6-.37.97-.15,1.07.64,2.13,1.28,3.2,1.94.29.17.46.44.34.79Z"/>
  <path class="cls-3" d="M48.99,15.03c-.78.49-1.57.96-2.36,1.43-.28.18-.57.35-.85.51-.14.07-.27.17-.39.15-.33,0-.53-.14-.64-.39-.12-.28-.05-.57.2-.73,1.16-.73,2.34-1.43,3.51-2.12.32-.18.62-.05.8.26.23.38.06.69-.27.9Z"/>
  <path class="cls-3" d="M14.55,21c-.15.48-.53.51-.95.39-1.16-.33-2.34-.66-3.5-.98-.38-.12-.61-.35-.53-.78.05-.34.31-.47.63-.51.15.03.3.05.45.1,1.1.31,2.19.62,3.28.92.44.13.78.34.63.86Z"/>
  <path class="cls-3" d="M14.1,30.72c-.85.25-1.72.49-2.58.73-.39.12-.79.23-1.2.32-.34.07-.62-.07-.74-.42-.12-.32-.01-.65.29-.74,1.33-.43,2.69-.8,3.93-1.15.46.01.69.16.77.49.07.38-.1.65-.47.77Z"/>
  <path class="cls-3" d="M51.43,31.28c-.12.46-.48.58-.93.45l-3.55-.99c-.39-.11-.6-.37-.52-.78.05-.34.31-.48.65-.51.22.06.47.13.71.19,1.02.28,2.04.57,3.05.85.39.11.7.34.59.79Z"/>
  <path class="cls-3" d="M51.09,20.32c-1.32.41-2.66.77-3.9,1.12-.44.01-.68-.15-.76-.47-.1-.34.03-.65.38-.75,1.29-.38,2.59-.75,3.89-1.09.33-.09.62.11.72.46.1.32-.04.63-.34.73Z"/>
  <path class="cls-3" d="M14.01,25.44c.01.5-.34.66-.78.66-1.21.01-2.42.01-3.63,0-.42,0-.75-.15-.76-.62-.01-.5.32-.67.77-.67.61.01,1.22.01,1.81.01h1.81c.43,0,.75.15.77.62Z"/>
  <path class="cls-3" d="M52.16,25.47c0,.43-.29.63-.69.63-1.25.01-2.5.01-3.75,0-.43,0-.74-.19-.73-.66.01-.46.33-.62.76-.62.61-.01,1.21,0,1.81,0h1.87c.45,0,.73.21.73.65Z"/>
  <path class="cls-2" d="M42.95,50.8c-.02.45-.01.9,0,1.34.01.31-.09.41-.39.41-1.77-.01-3.55-.01-5.32,0-.3,0-.43-.1-.41-.41.02-.45.02-.9,0-1.34-.02-.33.12-.38.41-.38.9.02,1.79.01,2.7.01s1.75.01,2.63-.01c.3,0,.42.07.39.38Z"/>
  <path class="cls-5" d="M42.95,50.8c-.02.45-.01.9,0,1.34.01.31-.09.41-.39.41-1.77-.01-3.55-.01-5.32,0-.3,0-.43-.1-.41-.41.02-.45.02-.9,0-1.34-.02-.33.12-.38.41-.38.9.02,1.79.01,2.7.01s1.75.01,2.63-.01c.3,0,.42.07.39.38Z"/>
</svg>