<?xml version="1.0" encoding="UTF-8"?>
<svg id="Layer_1" data-name="Layer 1" xmlns="http://www.w3.org/2000/svg" viewBox="0 0 61 61">
  <defs>
    <style>
      .cls-1 {
        fill: #f3ca7c;
      }

      .cls-1, .cls-2 {
        fill-rule: evenodd;
        stroke-width: 0px;
      }

      .cls-2 {
        fill: #bd8928;
      }
    </style>
  </defs>
  <path class="cls-1" d="M28.73,31.21l-.68,1.64h1.36l-.68-1.64ZM28.73,31.21l-.68,1.64h1.36l-.68-1.64ZM38.37,24.99c-.22-.22-.53-.35-.85-.35h-14.03c-.66,0-1.18.52-1.18,1.18v11.68c0,.32.12.62.35.85s.53.35.85.35h14.04c.65,0,1.18-.52,1.18-1.18v-11.68c0-.32-.13-.62-.35-.85ZM32.13,36.26c-.6.25-1.29-.03-1.54-.63l-.18-.45h-3.3l-.19.45c-.25.6-.94.88-1.54.63-.59-.25-.88-.94-.63-1.54l2.93-7.02c.18-.45.61-.73,1.08-.73s.89.29,1.08.73l2.94,7.02c.25.6-.04,1.29-.64,1.54ZM36.36,35.19c0,.65-.53,1.17-1.18,1.17s-1.17-.52-1.17-1.17v-7.03c0-.65.52-1.17,1.17-1.17s1.18.52,1.18,1.17v7.03ZM28.05,32.84h1.36l-.68-1.64-.68,1.64ZM38.37,24.99c-.22-.22-.53-.35-.85-.35h-14.03c-.66,0-1.18.52-1.18,1.18v11.68c0,.32.12.62.35.85s.53.35.85.35h14.04c.65,0,1.18-.52,1.18-1.18v-11.68c0-.32-.13-.62-.35-.85ZM32.13,36.26c-.6.25-1.29-.03-1.54-.63l-.18-.45h-3.3l-.19.45c-.25.6-.94.88-1.54.63-.59-.25-.88-.94-.63-1.54l2.93-7.02c.18-.45.61-.73,1.08-.73s.89.29,1.08.73l2.94,7.02c.25.6-.04,1.29-.64,1.54ZM36.36,35.19c0,.65-.53,1.17-1.18,1.17s-1.17-.52-1.17-1.17v-7.03c0-.65.52-1.17,1.17-1.17s1.18.52,1.18,1.17v7.03ZM28.05,32.84h1.36l-.68-1.64-.68,1.64ZM38.37,24.99c-.22-.22-.53-.35-.85-.35h-14.03c-.66,0-1.18.52-1.18,1.18v11.68c0,.32.12.62.35.85s.53.35.85.35h14.04c.65,0,1.18-.52,1.18-1.18v-11.68c0-.32-.13-.62-.35-.85ZM32.13,36.26c-.6.25-1.29-.03-1.54-.63l-.18-.45h-3.3l-.19.45c-.25.6-.94.88-1.54.63-.59-.25-.88-.94-.63-1.54l2.93-7.02c.18-.45.61-.73,1.08-.73s.89.29,1.08.73l2.94,7.02c.25.6-.04,1.29-.64,1.54ZM36.36,35.19c0,.65-.53,1.17-1.18,1.17s-1.17-.52-1.17-1.17v-7.03c0-.65.52-1.17,1.17-1.17s1.18.52,1.18,1.17v7.03ZM28.05,32.84h1.36l-.68-1.64-.68,1.64Z"/>
  <path class="cls-2" d="M50.42,46.9c-1.34,0-2.5.74-3.08,1.83l-2.78-1.38v-4.57c2.43-2.57,4.47-5.26,5.75-7.95.74-1.45,1.36-2.9,1.87-4.33h-4.1v1.18c0,.64-.52,1.17-1.17,1.17s-1.18-.53-1.18-1.17v-2.34c0-.65.53-1.18,1.18-1.18h6.01c.95-3.42,1.24-6.7.87-9.58-.03-.33-.09-.65-.14-.96h-5.57v7.03c0,.65-.52,1.17-1.17,1.17s-1.18-.52-1.18-1.17v-7.03h-2.34v2.34c0,.65-.53,1.17-1.18,1.17s-1.17-.52-1.17-1.17v-3.52c0-.65.52-1.17,1.17-1.17h10.83c-.32-.91-.71-1.76-1.18-2.54l1.61-1.21c.29-.22.47-.58.47-.94v-2.34c0-.65-.53-1.18-1.18-1.18s-1.17.53-1.17,1.18v1.76l-1.13.84c-.12-.14-.25-.28-.39-.41-2.03-1.99-4.86-3.22-7.86-3.37v3.52h1.18c.65,0,1.17.52,1.17,1.17s-.52,1.18-1.17,1.18h-1.18c0,.65-.52,1.17-1.17,1.17h-3.52c-.65,0-1.18-.52-1.18-1.17s.53-1.18,1.18-1.18h2.34v-4.56c-3.41.49-6.83,2.46-9.37,6.35-2.55-3.9-5.97-5.86-9.38-6.35v4.56h2.34c.65,0,1.18.53,1.18,1.18s-.53,1.17-1.18,1.17h-3.52c-.65,0-1.17-.52-1.17-1.17h-1.18c-.65,0-1.17-.53-1.17-1.18s.52-1.17,1.17-1.17h1.18v-3.52c-3,.15-5.81,1.38-7.83,3.37-.13.13-.27.27-.4.41l-1.13-.84v-1.76c0-.65-.52-1.18-1.17-1.18s-1.18.53-1.18,1.18v2.34c0,.36.18.71.47.94l1.61,1.21c-.47.78-.87,1.64-1.17,2.54h10.82c.65,0,1.17.52,1.17,1.17v3.52c0,.65-.52,1.17-1.17,1.17s-1.18-.52-1.18-1.17v-2.34h-2.34v7.03c0,.65-.52,1.17-1.17,1.17s-1.18-.52-1.18-1.17v-7.03h-5.57c-.05.32-.1.63-.14.96-.36,2.88-.07,6.16.87,9.58h6.02c.65,0,1.17.53,1.17,1.18v2.34c0,.64-.52,1.17-1.17,1.17s-1.18-.53-1.18-1.17v-1.18h-4.1c.51,1.43,1.14,2.88,1.87,4.33,1.28,2.68,3.32,5.38,5.75,7.95v4.57l-2.78,1.38c-.6-1.09-1.76-1.83-3.08-1.83-1.94,0-3.52,1.57-3.52,3.51s1.58,3.52,3.52,3.52c1.68,0,3.08-1.18,3.43-2.76l4.13-2.06c.4-.2.65-.61.65-1.05v-2.95c2.58,2.43,5.43,4.69,8.21,6.65v-4.15l-.53-.25c-.58-.29-.81-1-.52-1.58.29-.57.99-.81,1.57-.52l1.18.58c.39.2.65.61.65,1.05v6.49c.17.12.35.23.52.35.39.26.89.26,1.29,0,.18-.12.35-.23.53-.35v-6.49c0-.45.25-.86.65-1.05l1.17-.58c.58-.29,1.29-.06,1.58.52.29.58.05,1.29-.53,1.58l-.53.25v4.15c2.78-1.97,5.63-4.24,8.21-6.65v2.95c0,.45.25.86.65,1.05l4.13,2.06c.35,1.58,1.76,2.76,3.43,2.76,1.95,0,3.52-1.58,3.52-3.52s-1.57-3.51-3.52-3.51ZM43.41,37.53h-2.34c0,1.94-1.58,3.51-3.53,3.51h-1.17v2.34c0,.65-.52,1.18-1.17,1.18s-1.18-.53-1.18-1.18v-2.34h-2.34v2.34c0,.65-.52,1.18-1.17,1.18s-1.18-.53-1.18-1.18v-2.34h-2.34v2.34c0,.65-.53,1.18-1.18,1.18s-1.17-.53-1.17-1.18v-2.34h-1.16c-.94,0-1.83-.37-2.5-1.03-.66-.65-1.04-1.56-1.04-2.48h-2.34c-.65,0-1.17-.53-1.17-1.18s.52-1.17,1.17-1.17h2.34v-2.34h-2.34c-.65,0-1.17-.53-1.17-1.17s.52-1.18,1.17-1.18h2.34v-2.34h-2.34c-.65,0-1.17-.53-1.17-1.17s.52-1.18,1.17-1.18h2.34c0-1.94,1.58-3.51,3.53-3.51h1.16v-2.34c0-.65.52-1.18,1.17-1.18s1.18.53,1.18,1.18v2.34h2.34v-2.34c0-.65.53-1.18,1.18-1.18s1.17.53,1.17,1.18v2.34h2.34v-2.34c0-.65.53-1.18,1.18-1.18s1.17.53,1.17,1.18v2.34h1.17c.94,0,1.83.37,2.5,1.03.65.65,1.03,1.56,1.03,2.48h2.34c.65,0,1.18.53,1.18,1.18s-.53,1.17-1.18,1.17h-2.34v2.34h2.34c.65,0,1.18.53,1.18,1.18s-.53,1.17-1.18,1.17h-2.34v2.34h2.34c.65,0,1.18.53,1.18,1.17s-.53,1.18-1.18,1.18Z"/>
</svg>