<?xml version="1.0" encoding="UTF-8"?>
<svg id="Layer_1" data-name="Layer 1" xmlns="http://www.w3.org/2000/svg" viewBox="0 0 61 61">
  <defs>
    <style>
      .cls-1 {
        fill: #bd8928;
      }

      .cls-1, .cls-2 {
        stroke-width: 0px;
      }

      .cls-2 {
        fill: #f3ca7c;
      }
    </style>
  </defs>
  <g id="Social_Media_Marketing" data-name="Social Media Marketing">
    <path class="cls-1" d="M14.14,45.02l6.09,10.75c.67,1.19,2.15,1.75,3.5,1.18l3.67-1.56c1.54-.67,2.13-2.5,1.32-3.92l-5.87-10.35c4.57-2.09,9.02-3.18,13.82-1.81l.07.16c.79,1.66,2.62,2.25,4.14,1.57,1.57-.72,2.26-2.57,1.54-4.13l-3.34-7.32c1.45-1.64,1.83-3.99.89-6.02-.93-2.04-2.95-3.3-5.13-3.27h0l-3.34-7.32c-.73-1.58-2.57-2.25-4.14-1.54-1.47.68-2.3,2.43-1.49,4.24l.03.07h0c-1.41,3.07-3.68,5.43-6.6,7.23,0,0,0,0-.02,0-2.31,1.53-3.16,1.69-11.68,5.64-2.94,1.34-4.23,4.82-2.9,7.76l2.5,5.45c1.23,2.72,4.26,3.98,6.92,3.21ZM38.5,24.22c.55,1.21.45,2.57-.19,3.66l-2.69-5.91c1.25.22,2.34,1.04,2.88,2.25ZM26.77,17.62l9.03,19.78c-4.17-.85-7.82,0-11.17,1.17l-6.06-13.28c3.07-1.76,6.1-3.97,8.2-7.68ZM21.34,41.8l5.94,10.48c.32.54.12,1.29-.54,1.59l-3.67,1.56c-.52.22-1.13.02-1.41-.48l-5.98-10.56,5.66-2.59Z"/>
    <path class="cls-2" d="M38.19,15.75l3.44-1.54,4.78,1.04c1,.22,1.99-.41,2.21-1.42l1.26-5.77c.21-1-.42-1.99-1.42-2.21l-9.08-1.97c-1.01-.22-2.01.41-2.22,1.41l-1.26,5.77c-.21,1.01.42,2,1.43,2.22l.69.15-.41,1.86c-.07.32.25.61.58.46ZM41.08,7.25c.69-.5,1.65-.32,2.12.38.02.03.04.07.06.11.03-.02.07-.05.11-.07.7-.46,1.66-.26,2.1.48.42.7.14,1.61-.54,2.07l-2.14,1.41c-.21.13-.48.07-.61-.12l-1.41-2.14c-.45-.68-.35-1.63.31-2.11Z"/>
    <path class="cls-1" d="M44.7,35.08l.61.21-.58,1.64c-.1.33.21.57.47.49l3.31-1.02,4.24,1.49c.88.31,1.87-.16,2.18-1.05l1.78-5.11c.31-.88-.16-1.86-1.04-2.17l-8.06-2.82c-.89-.31-1.87.15-2.18,1.04l-1.79,5.11c-.31.9.16,1.88,1.06,2.19ZM48.31,33.21l.88-2.5c.13-.37.62-.45.86-.13l1.4,1.89c.21.28.07.69-.27.77l-2.28.6c-.38.1-.72-.26-.59-.64Z"/>
    <path class="cls-1" d="M49.61,24.44l2.12-1.55h3.42c.71,0,1.3-.57,1.3-1.29l.02-4.12c0-.72-.59-1.31-1.3-1.31l-6.49-.02c-.73,0-1.31.58-1.31,1.3v4.12c0,.72.57,1.31,1.3,1.31h.5v1.33c0,.26.29.37.45.23ZM50.52,18.55h3.13c.45,0,.83.37.83.83s-.37.83-.83.83h-3.13c-.46,0-.83-.37-.83-.83s.36-.83.83-.83Z"/>
  </g>
</svg>