<?xml version="1.0" encoding="UTF-8"?>
<svg id="Layer_1" data-name="Layer 1" xmlns="http://www.w3.org/2000/svg" viewBox="0 0 61 61">
  <defs>
    <style>
      .cls-1 {
        fill: #bd8928;
      }

      .cls-1, .cls-2 {
        stroke-width: 0px;
      }

      .cls-2 {
        fill: #f3ca7c;
      }
    </style>
  </defs>
  <path class="cls-2" d="M5.37,20.48c-.05,1.48.41,2.98,1.27,4.13.48.64.99,1.1,1.49,1.34.83.39,1.7.67,2.57.84,1.04.2,2.09.24,3.12.11-.91-1.59-1.3-3.48-.99-5.27.48-2.82,2.67-5.13,5.21-5.48.72-.1,1.79-.09,2.74.56.97.66,1.52,1.85,1.37,2.98-.07.53-.52.89-1.01.82-.49-.08-.83-.56-.76-1.09.05-.37-.18-.82-.55-1.07-.39-.26-.95-.36-1.56-.28-1.76.24-3.34,1.93-3.68,3.91-.33,1.94.47,4.13,1.98,5.45.08.07.15.17.2.26.02.02.05.03.07.05.14.11.27.22.42.32.77.53,1.75.68,2.78.84.01,0,.02,0,.03,0,.09,0,.18-.02.27,0,1,.21,2.08-.06,2.9-.73,1.01-.84,1.57-2.19,2.17-3.62.12-.3.25-.6.38-.89.54-1.23,1.44-2.93,3.06-3.56.1-.04.22-.06.33-.09.08-.03.16-.06.25-.07.77-.16,1.61-.08,2.42.25.78.32,1.54.85,2.31,1.62.36.36.38.97.05,1.36-.34.39-.9.41-1.26.05-.6-.6-1.17-1.01-1.73-1.23-.32-.13-.65-.2-.96-.21.03.5.29,1.17,1.35,1.64.46.2.68.76.5,1.25-.14.38-.47.6-.83.61-.11,0-.22-.02-.33-.07-1.49-.64-2.15-1.68-2.37-2.66-.52.56-.9,1.32-1.16,1.93-.12.28-.24.57-.36.86-.66,1.59-1.35,3.23-2.71,4.36-.18.15-.38.28-.58.4,1.5.9,2.9,2.32,4.19,4.27.1.15.23.35.3.39.06.03.27.03.38.03l2.33-.02c-.43-.91-.71-1.89-.83-2.91-.02-.19-.08-.63.15-1.06.24-.44.62-.6.85-.7.23-.1.44-.22.65-.35-.39-.45-1.07-1.01-2.16-1.09-.49-.04-.86-.5-.83-1.03.03-.53.47-.93.95-.9,1.73.13,2.81,1.04,3.42,1.79.13-.14.26-.28.4-.4.38-.33.78-.57,1.16-.8.18-.11.36-.22.54-.34,1.32-.89,2.29-2.39,2.61-4.04.13-.66.15-1.34.07-2.03-.12-1.01-.46-1.98-.98-2.79-.1-.15-.2-.3-.3-.45-.12-.17-.24-.35-.36-.54-1.34-.68-2.78-.53-3.97.43-.16.13-.35.19-.53.19-.27,0-.54-.13-.72-.39-.3-.43-.21-1.03.18-1.35,1.2-.96,2.6-1.36,4-1.18-1.22-2.65-3.75-4.56-6.48-4.83l-.25-.02c-.32-.03-.67-.05-1.04-.15-.39-.11-.75-.29-1.06-.45l-.24-.12c-2.18-1.06-4.77-1.05-6.94.05l-.08.04c-.25.13-.57.29-.94.34-.35.05-.68,0-.94-.05l-.09-.02c-2.55-.44-5.3.76-6.85,2.98l-.21.31c-.13.19-.26.38-.4.57.04.77.27,2.35,1.08,2.82.44.25.6.83.37,1.3-.16.32-.47.51-.79.51-.14,0-.29-.04-.42-.11-1.13-.65-1.63-1.95-1.85-3.03-1.61,1.36-2.65,3.44-2.73,5.49ZM22.88,10.59c.05-.53.48-.91.99-.85.49.06.84.53.79,1.06-.13,1.26.39,2.58,1.31,3.36.13.11.28.22.42.32.22.16.45.34.67.54.63,0,2.16-.1,2.59-1.21.19-.49.71-.72,1.17-.52.46.2.67.77.48,1.26-.63,1.63-2.12,2.17-3.25,2.33.15,1.06-.21,2.2-1.02,2.88-.16.13-.35.2-.54.2-.27,0-.53-.13-.71-.38-.3-.42-.23-1.03.16-1.35.39-.32.49-1.05.2-1.48-.16-.24-.45-.46-.76-.68-.17-.13-.35-.26-.51-.39-1.4-1.18-2.18-3.18-1.99-5.09ZM23.59,20.99c.48.11.8.62.7,1.14-.36,1.88-1.43,3.23-2.88,3.62-.28.07-.56.11-.84.11-1.2,0-2.42-.66-3.32-1.83-.31-.41-.26-1.02.12-1.36.38-.34.94-.28,1.26.13.68.89,1.56,1.29,2.35,1.08.77-.21,1.34-.99,1.56-2.14.1-.52.57-.86,1.05-.75ZM13.09,15.13c.36-1.88,1.43-3.23,2.88-3.62,1.45-.39,3.05.27,4.16,1.72.31.41.26,1.02-.12,1.36-.38.34-.94.28-1.26-.13-.68-.89-1.56-1.29-2.35-1.08-.77.21-1.34.99-1.56,2.14-.09.46-.46.77-.87.77-.06,0-.12,0-.18-.02-.48-.11-.8-.62-.7-1.14ZM9.85,20.27c.58-.12,1.05-.71,1.32-1.65.13-.44.56-.68.96-.54.4.14.63.6.5,1.04-.45,1.54-1.33,2.52-2.48,2.77-.28.06-.57.07-.86.04-.97-.11-1.94-.73-2.77-1.79-.27-.35-.23-.87.09-1.17.32-.29.81-.25,1.08.1.69.88,1.49,1.33,2.15,1.19Z"/>
  <path class="cls-1" d="M54.81,53.84h-10.82v-5.85c0-1.55,1.17-2.81,2.61-2.81h2.7c1.27,0,2.3-1.12,2.3-2.49v-5.8c0-1.55,1.17-2.81,2.61-2.81h.86c.24,0,.37-.18.4-.25.04-.08.12-.28,0-.5l-3.19-5.54c-.43-.76-.66-1.63-.66-2.52,0-5.3-1.92-10.3-5.4-14.07-3.5-3.76-8.14-5.83-13.06-5.83-2.65,0-5.24.61-7.62,1.78.46.13.91.3,1.34.51l.27.13c.27.13.51.26.76.33.22.05.48.08.76.1l.27.03c3.51.34,6.78,2.94,8.11,6.47l.12.34c.07.21.16.4.24.6.12.13.21.29.25.47.1.16.21.32.33.49.12.17.23.33.34.5.67,1.06,1.11,2.29,1.26,3.59.04.34.07.68.07,1.02,0,.54-.06,1.07-.16,1.59-.4,2.11-1.65,4.06-3.36,5.2-.2.13-.41.25-.61.38-.34.21-.66.39-.92.63-.18.15-.34.33-.5.51-.12.13-.23.25-.35.37-.09.17-.22.32-.39.41-.04.02-.09.02-.13.04-.45.36-.92.68-1.45.9.11.8.34,1.56.68,2.28.56,1.16.24,1.82-.12,2.17-.38.36-.86.37-1.08.37l-2.62.02h-.11c-.27,0-.63-.02-.99-.2-.47-.23-.74-.65-.94-.96-1.58-2.38-3.29-3.86-5.08-4.41-.16-.04-.33-.08-.49-.12h0c-.34,0-.69-.04-1.02-.11-.12-.03-.23-.08-.32-.14-1.12-.18-2.27-.39-3.3-1.08-.17-.12-.34-.25-.51-.39-.04-.04-.07-.06-.12-.1-.11-.04-.2-.08-.29-.16-.05-.04-.08-.09-.13-.13-.11-.06-.22-.12-.32-.14h-.03c.46,2.87,1.5,5.61,3.06,8.01.29-.04.59-.05.9-.05,4.93,0,8.94,4.34,8.94,9.66,0,1.01-.14,1.99-.42,2.9.51,1.51.82,3.06.92,4.66h-7.42c3.04-.96,5.26-3.98,5.26-7.57,0-4.34-3.26-7.86-7.28-7.86s-7.3,3.53-7.3,7.86c0,3.58,2.23,6.6,5.26,7.56H7.23c-.46,0-.83.39-.83.89s.37.9.83.9l47.58.04c.46,0,.83-.4.83-.9s-.37-.9-.83-.9ZM17.63,49.92c-.24,0-.47-.1-.65-.29l-2.44-2.63c-.36-.39-.36-1.01,0-1.39.36-.39.94-.39,1.29,0l1.8,1.93,4.32-4.66c.36-.39.94-.39,1.3,0,.35.39.35,1,0,1.39l-4.97,5.36c-.17.19-.41.29-.65.29Z"/>
</svg>