<?xml version="1.0" encoding="UTF-8"?>
<svg id="Layer_1" data-name="Layer 1" xmlns="http://www.w3.org/2000/svg" viewBox="0 0 61 61">
  <defs>
    <style>
      .cls-1 {
        fill: #bd8928;
      }

      .cls-1, .cls-2 {
        stroke-width: 0px;
      }

      .cls-2 {
        fill: #f3ca7c;
      }
    </style>
  </defs>
  <path class="cls-1" d="M53.17,11.46v25.39H7.83V11.46h9.86c-.53,1.47-.8,3.03-.79,4.6.02,7.49,6.11,13.55,13.6,13.53,1.57,0,3.13-.26,4.6-.79,7.05-2.53,10.72-10.28,8.2-17.34h9.86Z"/>
  <path class="cls-2" d="M30.5,4.2c-6.52,0-11.79,5.28-11.79,11.79,0,6.5,5.28,11.78,11.79,11.78,6.51,0,11.78-5.28,11.78-11.78s-5.28-11.79-11.78-11.79ZM32.31,21.23c0,1.11-.91,2.02-2.02,2.02-.63,0-1.23-.17-1.77-.49l-3.72-2.22h-1.83c-1.35,0-2.45-1.1-2.45-2.46v-4.16c0-.66.26-1.28.72-1.74.46-.46,1.09-.72,1.73-.72h1.83l3.72-2.23c.53-.32,1.14-.49,1.77-.49,1.11,0,2.02.91,2.02,2.03v10.47ZM36.14,18.52l-.29.59-1.63-.81.3-.59c.68-1.37.68-2.97,0-4.34l-.3-.59,1.63-.81.29.59c.94,1.88.94,4.09,0,5.97ZM38.5,21.03l-1.51-1.01.56-.84c1.47-2.21,1.47-5.09,0-7.29l-.56-.84,1.51-1.01.56.84c1.88,2.82,1.88,6.49,0,9.31l-.56.84Z"/>
  <path class="cls-2" d="M22.98,18.71h2.08c.16,0,.33.04.47.13l3.93,2.36c.25.15.54.23.84.23.11,0,.21-.09.21-.2v-10.47c0-.11-.09-.21-.21-.21-.29,0-.58.08-.84.23l-3.93,2.36c-.14.09-.3.13-.47.13h-2.08c-.35,0-.64.29-.64.64h0v4.16c0,.35.29.64.64.64h0Z"/>
  <path class="cls-1" d="M54.98,7.83h-13.63c.44.57.82,1.18,1.16,1.81h11.55c.5,0,.91.41.91.91v27.2c0,.5-.41.91-.91.91H6.93c-.5,0-.91-.41-.91-.91V10.55c0-.5.41-.91.91-.91h11.55c.34-.63.73-1.24,1.16-1.81H6.02c-1,0-1.81.81-1.81,1.81v30.83h52.59V9.65c0-1-.81-1.81-1.81-1.81Z"/>
  <rect class="cls-1" x="25.06" y="47.73" width="10.88" height="5.44"/>
  <path class="cls-1" d="M40.47,54.98h-19.95c-.5,0-.91.41-.91.91s.41.91.91.91h19.95c.5,0,.91-.41.91-.91s-.41-.91-.91-.91Z"/>
  <path class="cls-1" d="M4.21,44.1c0,1,.81,1.81,1.81,1.81h48.96c1,0,1.81-.81,1.81-1.81v-1.81H4.21v1.81Z"/>
</svg>